<?xml version="1.0" encoding="UTF-8" standalone="no"?>
<!-- Generated by IcoMoon.io -->

<svg
   xmlns:dc="http://purl.org/dc/elements/1.1/"
   xmlns:cc="http://creativecommons.org/ns#"
   xmlns:rdf="http://www.w3.org/1999/02/22-rdf-syntax-ns#"
   xmlns:svg="http://www.w3.org/2000/svg"
   xmlns="http://www.w3.org/2000/svg"
   xmlns:sodipodi="http://sodipodi.sourceforge.net/DTD/sodipodi-0.dtd"
   xmlns:inkscape="http://www.inkscape.org/namespaces/inkscape"
   version="1.1"
   width="32"
   height="32"
   viewBox="0 0 32 32"
   id="svg2"
   inkscape:version="0.91 r13725"
   sodipodi:docname="bash.svg">
  <metadata
     id="metadata10">
    <rdf:RDF>
      <cc:Work
         rdf:about="">
        <dc:format>image/svg+xml</dc:format>
        <dc:type
           rdf:resource="http://purl.org/dc/dcmitype/StillImage" />
      </cc:Work>
    </rdf:RDF>
  </metadata>
  <defs
     id="defs8" />
  <sodipodi:namedview
     pagecolor="#ffffff"
     bordercolor="#666666"
     borderopacity="1"
     objecttolerance="10"
     gridtolerance="10"
     guidetolerance="10"
     inkscape:pageopacity="0"
     inkscape:pageshadow="2"
     inkscape:window-width="1920"
     inkscape:window-height="1027"
     id="namedview6"
     showgrid="false"
     inkscape:zoom="14.75"
     inkscape:cx="8.0528691"
     inkscape:cy="9.4986859"
     inkscape:window-x="0"
     inkscape:window-y="0"
     inkscape:window-maximized="1"
     inkscape:current-layer="svg2" />
  <g
     id="g4169">
    <path
       d="m 14.887049,1.4094536 c -0.246586,0.08905 -1.013745,0.500022 -1.712406,0.911 -0.698662,0.410977 -2.589159,1.541165 -4.2125205,2.500113 -1.616511,0.958947 -3.28097,1.952143 -3.698797,2.198729 -1.137038,0.678113 -1.732955,1.363076 -2.041188,2.342572 l -0.150692,0.4794744 0,6.164663 c 0,6.849625 -0.0274,6.466045 0.465774,7.390745 0.417827,0.787707 0.753459,1.041143 3.47276,2.650805 1.376775,0.815105 3.5001585,2.075437 4.7262415,2.808347 2.739851,1.623361 2.815197,1.664458 3.315219,1.808301 0.513722,0.150691 1.623362,0.116437 2.130234,-0.0685 0.191789,-0.06165 1.589113,-0.863053 3.116579,-1.767203 1.527466,-0.904151 3.760444,-2.226128 4.965979,-2.945338 2.452165,-1.45212 2.842593,-1.767204 3.239872,-2.582309 0.438375,-0.90415 0.424676,-0.657564 0.424676,-7.29485 0,-6.6304384 0.0137,-6.390701 -0.417827,-7.2880024 -0.404128,-0.815103 -0.794556,-1.123336 -3.349466,-2.637103 -1.260332,-0.746609 -3.513858,-2.082286 -5.000227,-2.965888 -1.794601,-1.061692 -2.849443,-1.64391 -3.143977,-1.732955 -0.630166,-0.198639 -1.541166,-0.18494 -2.130234,0.0274 z m 2.041189,0.616466 c 0.232886,0.08219 8.596279,4.993376 9.890857,5.808482 0.609618,0.383579 1.178137,1.123338 1.328828,1.739805 l 0.04795,0.1986394 -0.219188,-0.1849404 c -0.116437,-0.102745 -0.321932,-0.205489 -0.452075,-0.232887 -0.56852,-0.102744 -0.356181,-0.219188 -8.726422,4.9591294 -1.034294,0.637015 -2.034339,1.301429 -2.232978,1.465819 -0.19864,0.178091 -0.452076,0.500023 -0.589068,0.74661 l -0.232887,0.438376 -0.02055,6.123564 -0.0137,6.123565 0.143843,0.301383 c 0.0822,0.17124 0.239736,0.36303 0.342481,0.424677 0.253436,0.150692 0.191789,0.212338 -0.212339,0.212338 -0.582217,0 -1.09594,-0.19179 -2.089135,-0.780857 -0.527422,-0.315083 -1.958995,-1.164436 -3.185077,-1.890496 -1.2260835,-0.72606 -3.0275355,-1.794602 -4.0070315,-2.37682 -0.979496,-0.582218 -1.897346,-1.171287 -2.041188,-1.308279 -0.383579,-0.369879 -0.650715,-0.801405 -0.801406,-1.301429 -0.130143,-0.424676 -0.136993,-0.657564 -0.136993,-6.486594 0,-5.746836 0.0069,-6.068768 0.130143,-6.4660474 0.164391,-0.520571 0.486323,-1.027443 0.863053,-1.363075 0.246586,-0.212338 1.712406,-1.10279 5.157767,-3.137128 0.3287825,-0.19179 1.5069185,-0.890451 2.6165575,-1.548015 2.315174,-1.376775 2.513813,-1.479519 2.897392,-1.561715 0.390428,-0.08219 1.178136,-0.03425 1.541166,0.0959 z m 2.959037,15.9253784 0,0.404129 0.445227,-0.0411 c 0.54112,-0.0411 0.561668,-0.0069 0.390427,0.602767 l -0.116437,0.445226 -0.410978,0.03425 c -0.479474,0.0411 -0.828805,0.219188 -1.041144,0.54797 -0.18494,0.267135 -0.212337,0.760309 -0.0548,0.890452 0.06165,0.04795 0.342482,0.1096 0.637015,0.136992 0.287684,0.0274 0.602767,0.0822 0.698662,0.1233 0.575368,0.232886 0.767157,1.013744 0.479473,1.945293 -0.150691,0.500023 -0.568518,1.184985 -0.856202,1.411023 -0.164391,0.130143 -0.18494,0.184939 -0.171241,0.506872 0.0274,0.568518 0.02055,0.589068 -0.315083,0.780857 -0.37673,0.219189 -0.438376,0.171241 -0.438376,-0.36303 l 0,-0.349331 -0.239736,0.06165 c -0.136993,0.0411 -0.37673,0.06165 -0.534272,0.04795 -0.280835,-0.02055 -0.287683,-0.0274 -0.280835,-0.260286 0.0069,-0.130143 0.04795,-0.36988 0.08905,-0.534272 l 0.0822,-0.287683 0.397278,0 c 0.616466,0 1.075391,-0.267135 1.335677,-0.774008 0.18494,-0.35618 0.191789,-0.410977 0.123288,-0.657564 -0.0959,-0.315083 -0.260285,-0.390428 -0.90415,-0.438376 -0.246586,-0.0137 -0.55482,-0.0822 -0.678113,-0.143842 -0.267136,-0.143843 -0.486323,-0.568519 -0.486323,-0.965798 0,-0.623315 0.35618,-1.465819 0.835655,-1.958992 0.246586,-0.253437 0.260285,-0.294534 0.260285,-0.698662 0,-0.239737 0.0411,-0.479473 0.08905,-0.54112 0.116437,-0.150692 0.54112,-0.397278 0.609616,-0.356181 0.0274,0.02055 0.0548,0.212339 0.0548,0.431526 z m 4.918032,5.020775 c 0.0137,0.150692 -0.02055,0.287685 -0.10275,0.38358 -0.116438,0.143841 -2.253527,1.45212 -2.36312,1.45212 -0.08905,0 -0.06165,-0.664414 0.03425,-0.73976 0.226037,-0.191789 2.280925,-1.383624 2.342572,-1.363075 0.03425,0.0137 0.07535,0.130142 0.08905,0.267135 z"
       id="path8"
       inkscape:connector-curvature="0"
       style="fill:#000000;stroke:none" />
    <path
       inkscape:connector-curvature="0"
       id="path4148"
       d="m 22.318796,24.707777 c -0.05821,-0.151682 0.02644,-0.555216 0.137558,-0.655807 0.257425,-0.233029 2.19005,-1.322655 2.264418,-1.276693 0.02804,0.01733 0.05099,0.129007 0.05099,0.248165 0,0.190567 -0.02335,0.236547 -0.193909,0.381902 -0.182731,0.155724 -1.333406,0.880567 -1.947839,1.227 -0.244932,0.138099 -0.283577,0.147466 -0.311219,0.07543 z"
       style="opacity:0.81800022;fill:#ffffff;fill-opacity:1;stroke:#000000;stroke-width:0.15;stroke-linecap:round;stroke-linejoin:round;stroke-miterlimit:4;stroke-dasharray:none;stroke-opacity:1" />
    <path
       inkscape:connector-curvature="0"
       id="path4154"
       d="m 15.659938,30.098151 c -0.348671,-0.04557 -0.702937,-0.176956 -1.2077,-0.447914 -0.754682,-0.405114 -8.5533495,-5.056144 -9.1949795,-5.483774 -0.590625,-0.393637 -0.701237,-0.489929 -0.928044,-0.807903 -0.290436,-0.407178 -0.451536,-0.790605 -0.515948,-1.227982 -0.06255,-0.424715 -0.05792,-11.884546 0.005,-12.289791 0.06629,-0.4272204 0.381655,-1.0639774 0.698821,-1.4110074 0.362731,-0.396885 0.840261,-0.691918 7.3194005,-4.522158 2.949102,-1.743405 3.214839,-1.885688 3.669835,-1.964922 0.487231,-0.08485 1.202624,0.0075 1.581175,0.204174 0.574104,0.298228 5.903802,3.41564 8.55328,5.002928 1.131571,0.677918 1.340406,0.822888 1.690622,1.173596 0.39419,0.394744 0.704517,0.883624 0.789835,1.244283 L 28.156475,9.716648 28.040708,9.610731 C 27.841803,9.4287486 27.587176,9.3263716 27.324639,9.3228196 c -0.205487,-0.0028 -0.340036,0.04007 -0.720008,0.229313 -0.973715,0.4849474 -8.96091,5.4031214 -9.892222,6.0912094 -0.303045,0.223901 -0.656641,0.661645 -0.863001,1.068374 l -0.122726,0.241891 -0.02838,6.114042 -0.02838,6.114041 0.155493,0.307126 c 0.08745,0.172731 0.232533,0.365888 0.331551,0.441412 0.09683,0.07386 0.169864,0.139379 0.162293,0.145603 -0.05205,0.04279 -0.409962,0.0549 -0.65929,0.02232 z"
       style="opacity:0.81800022;fill:#ffffff;fill-opacity:1;stroke:#000000;stroke-width:0.11;stroke-linecap:round;stroke-linejoin:round;stroke-miterlimit:4;stroke-dasharray:none;stroke-opacity:1" />
  </g>
  <path
     style="opacity:0.81800011;fill:#ffffff;fill-opacity:1;stroke:#000000;stroke-width:0.05;stroke-linecap:round;stroke-linejoin:round;stroke-miterlimit:4;stroke-dasharray:none;stroke-opacity:1"
     d="m 19.218102,25.826119 c -0.05621,-0.06212 -0.06779,-0.133059 -0.07608,-0.466071 -0.0046,-0.18411 -0.01488,-0.334745 -0.0229,-0.334745 -0.008,0 -0.08903,0.01988 -0.18004,0.04418 -0.180339,0.04815 -0.512193,0.0721 -0.690442,0.04983 -0.133026,-0.01662 -0.161465,-0.04849 -0.161465,-0.18097 0,-0.178614 0.05431,-0.481531 0.136742,-0.76263 l 0.03293,-0.112303 0.351603,-0.0091 c 0.28707,-0.0074 0.376241,-0.0158 0.485832,-0.04561 0.429717,-0.116898 0.713291,-0.358955 0.933655,-0.79696 0.08223,-0.163432 0.127032,-0.294519 0.127032,-0.371638 0,-0.06877 -0.05662,-0.286398 -0.09263,-0.356029 -0.03011,-0.05823 -0.122416,-0.149396 -0.183784,-0.181516 -0.09045,-0.04734 -0.297833,-0.08874 -0.582216,-0.116235 -0.319539,-0.03089 -0.569947,-0.07649 -0.712104,-0.129678 -0.06885,-0.02576 -0.123803,-0.06457 -0.198665,-0.140308 -0.126209,-0.127687 -0.200781,-0.250535 -0.270693,-0.445931 -0.05194,-0.145178 -0.0531,-0.154932 -0.05174,-0.436631 0.0013,-0.264706 0.0056,-0.303985 0.05303,-0.483051 0.153411,-0.57905 0.403325,-1.039863 0.790244,-1.457116 0.206459,-0.222646 0.217298,-0.251844 0.233193,-0.628145 0.01729,-0.409216 0.04651,-0.544374 0.136297,-0.630327 0.08113,-0.07766 0.229899,-0.179533 0.353489,-0.242046 0.127852,-0.06467 0.180776,-0.07828 0.202525,-0.05207 0.02661,0.03206 0.05124,0.309938 0.05157,0.581738 1.7e-4,0.132839 0.006,0.241299 0.01301,0.241022 0.007,-2.77e-4 0.123305,-0.01149 0.258474,-0.02492 0.306308,-0.03043 0.520445,-0.03173 0.576272,-0.0035 0.0233,0.01179 0.05259,0.04275 0.06508,0.06879 0.02952,0.06156 0.01399,0.150925 -0.10495,0.604189 l -0.09118,0.347457 -0.243799,0.02021 c -0.302795,0.0251 -0.429006,0.04659 -0.591256,0.100677 -0.259008,0.08634 -0.445599,0.223039 -0.595201,0.436065 -0.119333,0.169924 -0.171539,0.34095 -0.174042,0.570164 -0.0017,0.158178 0.0028,0.187389 0.04043,0.262712 0.03038,0.06075 0.06032,0.09352 0.105775,0.115727 0.08486,0.04147 0.323652,0.08815 0.623039,0.12179 0.647752,0.07279 0.852177,0.15608 1.044462,0.425543 0.272063,0.381262 0.299583,1.010558 0.07385,1.68864 -0.162253,0.487387 -0.4812,1.011782 -0.80666,1.326266 -0.08683,0.0839 -0.165772,0.174013 -0.175435,0.200256 -0.01012,0.02748 -0.01773,0.207189 -0.01794,0.423729 -4.36e-4,0.44035 -0.0099,0.477565 -0.146596,0.577843 -0.109824,0.08055 -0.404374,0.230375 -0.452913,0.230375 -0.02141,0 -0.05103,-0.01336 -0.0658,-0.02969 z"
     id="path4149"
     inkscape:connector-curvature="0" />
</svg>
