<?xml version="1.0" encoding="UTF-8" standalone="no"?>
<svg
   xmlns:dc="http://purl.org/dc/elements/1.1/"
   xmlns:cc="http://creativecommons.org/ns#"
   xmlns:rdf="http://www.w3.org/1999/02/22-rdf-syntax-ns#"
   xmlns:svg="http://www.w3.org/2000/svg"
   xmlns="http://www.w3.org/2000/svg"
   id="svg2"
   viewBox="0 0 32 32"
   height="32"
   width="32"
   version="1.1">
  <metadata
     id="metadata10">
    <rdf:RDF>
      <cc:Work
         rdf:about="">
        <dc:format>image/svg+xml</dc:format>
        <dc:type
           rdf:resource="http://purl.org/dc/dcmitype/StillImage" />
        <dc:title></dc:title>
      </cc:Work>
    </rdf:RDF>
  </metadata>
  <defs
     id="defs8" />
  <path
     d="m 14.887049,1.4094536 c -0.246586,0.08905 -1.013745,0.500022 -1.712406,0.911 -0.698662,0.410977 -2.589159,1.541165 -4.2125205,2.500113 -1.616511,0.958947 -3.28097,1.952143 -3.698797,2.198729 -1.137038,0.678113 -1.732955,1.363076 -2.041188,2.342572 l -0.150692,0.4794744 0,6.164663 c 0,6.849625 -0.0274,6.466045 0.465774,7.390745 0.417827,0.787707 0.753459,1.041143 3.47276,2.650805 1.376775,0.815105 3.5001585,2.075437 4.7262415,2.808347 2.739851,1.623361 2.815197,1.664458 3.315219,1.808301 0.513722,0.150691 1.623362,0.116437 2.130234,-0.0685 0.191789,-0.06165 1.589113,-0.863053 3.116579,-1.767203 1.527466,-0.904151 3.760444,-2.226128 4.965979,-2.945338 2.452165,-1.45212 2.842593,-1.767204 3.239872,-2.582309 0.438375,-0.90415 0.424676,-0.657564 0.424676,-7.29485 0,-6.6304384 0.0137,-6.390701 -0.417827,-7.2880024 -0.404128,-0.815103 -0.794556,-1.123336 -3.349466,-2.637103 -1.260332,-0.746609 -3.513858,-2.082286 -5.000227,-2.965888 -1.794601,-1.061692 -2.849443,-1.64391 -3.143977,-1.732955 -0.630166,-0.198639 -1.541166,-0.18494 -2.130234,0.0274 z m 2.041189,0.616466 c 0.232886,0.08219 8.596279,4.993376 9.890857,5.808482 0.609618,0.383579 1.178137,1.123338 1.328828,1.739805 l 0.04795,0.1986394 -0.219188,-0.1849404 c -0.116437,-0.102745 -0.321932,-0.205489 -0.452075,-0.232887 -0.56852,-0.102744 -0.356181,-0.219188 -8.726422,4.9591294 -1.034294,0.637015 -2.034339,1.301429 -2.232978,1.465819 -0.19864,0.178091 -0.452076,0.500023 -0.589068,0.74661 l -0.232887,0.438376 -0.02055,6.123564 -0.0137,6.123565 0.143843,0.301383 c 0.0822,0.17124 0.239736,0.36303 0.342481,0.424677 0.253436,0.150692 0.191789,0.212338 -0.212339,0.212338 -0.582217,0 -1.09594,-0.19179 -2.089135,-0.780857 -0.527422,-0.315083 -1.958995,-1.164436 -3.185077,-1.890496 -1.2260835,-0.72606 -3.0275355,-1.794602 -4.0070315,-2.37682 -0.979496,-0.582218 -1.897346,-1.171287 -2.041188,-1.308279 -0.383579,-0.369879 -0.650715,-0.801405 -0.801406,-1.301429 -0.130143,-0.424676 -0.136993,-0.657564 -0.136993,-6.486594 0,-5.746836 0.0069,-6.068768 0.130143,-6.4660474 0.164391,-0.520571 0.486323,-1.027443 0.863053,-1.363075 0.246586,-0.212338 1.712406,-1.10279 5.157767,-3.137128 0.3287825,-0.19179 1.5069185,-0.890451 2.6165575,-1.548015 2.315174,-1.376775 2.513813,-1.479519 2.897392,-1.561715 0.390428,-0.08219 1.178136,-0.03425 1.541166,0.0959 z m 2.959037,15.9253784 0,0.404129 0.445227,-0.0411 c 0.54112,-0.0411 0.561668,-0.0069 0.390427,0.602767 l -0.116437,0.445226 -0.410978,0.03425 c -0.479474,0.0411 -0.828805,0.219188 -1.041144,0.54797 -0.18494,0.267135 -0.212337,0.760309 -0.0548,0.890452 0.06165,0.04795 0.342482,0.1096 0.637015,0.136992 0.287684,0.0274 0.602767,0.0822 0.698662,0.1233 0.575368,0.232886 0.767157,1.013744 0.479473,1.945293 -0.150691,0.500023 -0.568518,1.184985 -0.856202,1.411023 -0.164391,0.130143 -0.18494,0.184939 -0.171241,0.506872 0.0274,0.568518 0.02055,0.589068 -0.315083,0.780857 -0.37673,0.219189 -0.438376,0.171241 -0.438376,-0.36303 l 0,-0.349331 -0.239736,0.06165 c -0.136993,0.0411 -0.37673,0.06165 -0.534272,0.04795 -0.280835,-0.02055 -0.287683,-0.0274 -0.280835,-0.260286 0.0069,-0.130143 0.04795,-0.36988 0.08905,-0.534272 l 0.0822,-0.287683 0.397278,0 c 0.616466,0 1.075391,-0.267135 1.335677,-0.774008 0.18494,-0.35618 0.191789,-0.410977 0.123288,-0.657564 -0.0959,-0.315083 -0.260285,-0.390428 -0.90415,-0.438376 -0.246586,-0.0137 -0.55482,-0.0822 -0.678113,-0.143842 -0.267136,-0.143843 -0.486323,-0.568519 -0.486323,-0.965798 0,-0.623315 0.35618,-1.465819 0.835655,-1.958992 0.246586,-0.253437 0.260285,-0.294534 0.260285,-0.698662 0,-0.239737 0.0411,-0.479473 0.08905,-0.54112 0.116437,-0.150692 0.54112,-0.397278 0.609616,-0.356181 0.0274,0.02055 0.0548,0.212339 0.0548,0.431526 z m 4.918032,5.020775 c 0.0137,0.150692 -0.02055,0.287685 -0.10275,0.38358 -0.116438,0.143841 -2.253527,1.45212 -2.36312,1.45212 -0.08905,0 -0.06165,-0.664414 0.03425,-0.73976 0.226037,-0.191789 2.280925,-1.383624 2.342572,-1.363075 0.03425,0.0137 0.07535,0.130142 0.08905,0.267135 z"
     id="path8"
     style="fill:#000000;stroke:none" />
</svg>
