<?xml version="1.0" encoding="UTF-8" standalone="no"?>
<svg
   xmlns:dc="http://purl.org/dc/elements/1.1/"
   xmlns:cc="http://creativecommons.org/ns#"
   xmlns:rdf="http://www.w3.org/1999/02/22-rdf-syntax-ns#"
   xmlns:svg="http://www.w3.org/2000/svg"
   xmlns="http://www.w3.org/2000/svg"
   xmlns:sodipodi="http://sodipodi.sourceforge.net/DTD/sodipodi-0.dtd"
   xmlns:inkscape="http://www.inkscape.org/namespaces/inkscape"
   version="1.1"
   width="63.730404"
   height="63.689957"
   viewBox="0 0 63.730404 63.689957"
   id="svg2"
   sodipodi:docname="bash.svg"
   inkscape:version="0.92.3 (2405546, 2018-03-11)">
  <sodipodi:namedview
     pagecolor="#ffffff"
     bordercolor="#666666"
     borderopacity="1"
     objecttolerance="10"
     gridtolerance="10"
     guidetolerance="10"
     inkscape:pageopacity="0"
     inkscape:pageshadow="2"
     inkscape:window-width="1920"
     inkscape:window-height="1026"
     id="namedview10"
     showgrid="false"
     inkscape:zoom="7.375"
     inkscape:cx="-66.654869"
     inkscape:cy="34.011446"
     inkscape:window-x="0"
     inkscape:window-y="0"
     inkscape:window-maximized="1"
     inkscape:current-layer="svg2"
     fit-margin-top="0"
     fit-margin-left="0"
     fit-margin-right="0"
     fit-margin-bottom="0" />
  <metadata
     id="metadata10">
    <rdf:RDF>
      <cc:Work
         rdf:about="">
        <dc:format>image/svg+xml</dc:format>
        <dc:type
           rdf:resource="http://purl.org/dc/dcmitype/StillImage" />
        <dc:title></dc:title>
      </cc:Work>
    </rdf:RDF>
  </metadata>
  <defs
     id="defs8" />
  <path
     inkscape:connector-curvature="0"
     style="opacity:1;fill:#000000;fill-opacity:1;stroke:none;stroke-width:2.16019368;stroke-linecap:round;stroke-linejoin:round;stroke-miterlimit:4;stroke-dasharray:none;stroke-opacity:1"
     d="M 7.8660622,0 C 3.5082069,0 0,3.5056464 0,7.8607865 V 55.82917 c 0,4.35514 3.5082069,7.860786 7.8660622,7.860786 H 55.862582 c 4.357854,0 7.86782,-3.505646 7.86782,-7.860786 V 7.8607865 C 63.730402,3.5056464 60.220436,0 55.862582,0 Z M 9.6861768,2.4162687 H 54.042466 c 4.027281,0 7.269909,3.2398611 7.269909,7.2646328 V 54.009054 c 0,4.024773 -3.242628,7.264634 -7.269909,7.264634 H 9.6861768 c -4.0272797,0 -7.269908,-3.239861 -7.269908,-7.264634 V 9.6809015 c 0,-4.0247717 3.2426283,-7.2646328 7.269908,-7.2646328 z M 11.112373,5.040048 c -3.768546,0 -6.8038883,2.9515498 -6.8038883,6.617481 v 40.374899 c 0,3.66593 3.0353423,6.61748 6.8038883,6.61748 h 41.505656 c 3.768547,0 6.803889,-2.95155 6.803889,-6.61748 V 11.657529 c 0,-3.6659312 -3.035342,-6.617481 -6.803889,-6.617481 z m 9.023198,8.877237 h 1.758565 v 4.079871 c 1.090311,0.04689 2.14545,0.164133 3.165417,0.351714 1.019969,0.175856 2.016488,0.422056 2.989562,0.738597 v 3.077489 C 27.076041,21.672558 26.073659,21.291536 25.041968,21.021889 24.022,20.752242 22.972723,20.593971 21.894136,20.547076 v 7.509074 c 2.661295,0.410332 4.619164,1.143067 5.873608,2.198206 1.254443,1.055139 1.881664,2.497162 1.881664,4.32607 0,1.981317 -0.668254,3.54644 -2.004763,4.695369 -1.324786,1.137206 -3.241623,1.793737 -5.750509,1.969594 v 5.328452 H 20.135571 L 20.117981,41.28056 C 18.886985,41.25711 17.65599,41.116426 16.424994,40.858505 15.193999,40.588857 13.957141,40.190249 12.714422,39.662679 v -3.165416 c 1.195825,0.750321 2.403372,1.318923 3.622644,1.705808 1.230996,0.37516 2.497163,0.568602 3.798501,0.580326 V 30.76434 c -2.590953,-0.422056 -4.478479,-1.137206 -5.66258,-2.145449 -1.172377,-1.008245 -1.758565,-2.391648 -1.758565,-4.150215 0,-1.910973 0.638945,-3.417477 1.916836,-4.519512 1.277891,-1.102034 3.11266,-1.735118 5.504309,-1.899251 z m 0,6.612205 c -1.359957,0.152409 -2.39751,0.539294 -3.11266,1.160654 -0.71515,0.621359 -1.072725,1.447885 -1.072725,2.479576 0,1.008245 0.328265,1.793737 0.984797,2.356478 0.668254,0.562741 1.735117,0.967211 3.200588,1.21341 z m 1.758565,10.586563 v 7.614587 c 1.488919,-0.199304 2.608539,-0.621359 3.35886,-1.266167 0.762045,-0.644807 1.143067,-1.49478 1.143067,-2.549919 0,-1.031691 -0.363437,-1.852356 -1.09031,-2.461991 -0.71515,-0.609636 -1.852356,-1.05514 -3.411617,-1.33651 z m 10.410706,16.143628 h 18.711134 v 2.514748 H 32.304842 Z"
     id="rect4150-3-6" />
</svg>
