<?xml version="1.0" encoding="UTF-8" standalone="no"?>
<!-- Created with Inkscape (http://www.inkscape.org/) -->

<svg
   xmlns:dc="http://purl.org/dc/elements/1.1/"
   xmlns:cc="http://creativecommons.org/ns#"
   xmlns:rdf="http://www.w3.org/1999/02/22-rdf-syntax-ns#"
   xmlns:svg="http://www.w3.org/2000/svg"
   xmlns="http://www.w3.org/2000/svg"
   xmlns:sodipodi="http://sodipodi.sourceforge.net/DTD/sodipodi-0.dtd"
   xmlns:inkscape="http://www.inkscape.org/namespaces/inkscape"
   width="56.642033"
   height="63.969997"
   id="svg3392"
   version="1.1"
   inkscape:version="0.92.3 (2405546, 2018-03-11)"
   viewBox="0 0 56.642033 63.969997"
   sodipodi:docname="c.svg">
  <defs
     id="defs3394" />
  <sodipodi:namedview
     id="base"
     pagecolor="#ffffff"
     bordercolor="#666666"
     borderopacity="1.0"
     inkscape:pageopacity="0.0"
     inkscape:pageshadow="2"
     inkscape:zoom="5.6568545"
     inkscape:cx="-37.909993"
     inkscape:cy="52.529197"
     inkscape:current-layer="layer1"
     showgrid="true"
     inkscape:grid-bbox="true"
     inkscape:document-units="px"
     inkscape:window-width="1920"
     inkscape:window-height="1026"
     inkscape:window-x="0"
     inkscape:window-y="0"
     inkscape:window-maximized="1"
     fit-margin-top="0"
     fit-margin-left="0"
     fit-margin-right="0"
     fit-margin-bottom="0" />
  <metadata
     id="metadata3397">
    <rdf:RDF>
      <cc:Work
         rdf:about="">
        <dc:format>image/svg+xml</dc:format>
        <dc:type
           rdf:resource="http://purl.org/dc/dcmitype/StillImage" />
        <dc:title></dc:title>
      </cc:Work>
    </rdf:RDF>
  </metadata>
  <g
     id="layer1"
     inkscape:label="Layer 1"
     inkscape:groupmode="layer"
     transform="translate(-3.6789833,31.984999)">
    <path
       inkscape:connector-curvature="0"
       d="m 30.656197,-31.790193 c -0.649308,0.170065 -1.592351,0.680228 -6.106588,3.292921 -5.287224,3.076485 -9.183076,5.318145 -14.6867374,8.487387 -4.3596402,2.504476 -5.1017059,3.091945 -5.7664754,4.51424 l -0.4174129,0.881203 V 0.07229375 14.759001 l 0.4174129,0.881205 c 0.2164372,0.479251 0.6647695,1.128559 1.0048819,1.468674 0.6029288,0.602929 24.1790059,14.346623 25.2302659,14.702196 0.680227,0.231897 2.597233,0.231897 3.27746,0 0.494711,-0.154597 3.602115,-1.947926 18.690803,-10.682668 3.35476,-1.932466 6.292108,-3.710333 6.524003,-3.926771 0.216435,-0.216435 0.633848,-0.819364 0.927583,-1.344994 L 60.261564,14.913599 60.30795,0.27326933 C 60.33886,-14.073353 60.33886,-14.367086 60.02967,-15.186452 c -0.510171,-1.375914 -1.468672,-2.257119 -4.096826,-3.772172 -4.220503,-2.427176 -12.027662,-6.925954 -16.310004,-9.414969 -1.14402,-0.66477 -2.921888,-1.685111 -3.926771,-2.25712 -2.365335,-1.344995 -3.447518,-1.592352 -5.039869,-1.15948 z m 4.498779,13.017085 c 3.988609,0.66477 7.683482,2.628153 10.543531,5.61188 1.391374,1.453214 2.829128,3.4475183 2.674532,3.7103325 -0.06183,0.092766 -0.881205,0.6029308 -1.839708,1.144021 -3.061025,1.7469476 -5.905613,3.3856777 -6.060211,3.5248147 -0.216435,0.1700644 -0.401951,0.030915 -0.989423,-0.8039043 -0.587469,-0.8348258 -1.793327,-1.917006 -2.813667,-2.5044752 -2.257119,-1.2986155 -5.132629,-1.6078107 -7.482505,-0.819366 -1.623273,0.5565518 -2.720912,1.2522385 -3.89585,2.4426365 -2.179821,2.2416608 -3.153783,5.59641922 -2.442635,8.5646862 0.664767,2.8136683 2.519933,5.1790065 5.024408,6.3694043 1.530512,0.7266082 2.519935,0.9585031 4.096826,0.9585031 2.458096,0 4.684296,-0.8966644 6.431243,-2.5817734 0.602931,-0.5720095 1.22132,-1.2676962 1.391375,-1.5459722 0.170065,-0.2782759 0.386494,-0.5101708 0.463793,-0.5101708 0.0773,0 0.463792,0.2009797 0.865745,0.4483322 0.417411,0.2318949 2.16436,1.2522366 3.911308,2.2571185 1.74695,1.004882 3.231083,1.8860867 3.308381,1.9479254 0.247355,0.2164352 -1.344996,2.3498785 -2.921888,3.9422025 -3.710332,3.741252 -8.209112,5.627339 -13.449957,5.627339 -6.524003,0 -12.290477,-3.138323 -15.954432,-8.703797 -1.716029,-2.6126923 -2.597234,-5.1017077 -2.983725,-8.4564682 -0.231897,-1.91700399 -0.123682,-3.6175747 0.386491,-5.9674512 0.432873,-1.9788446 0.757527,-2.8600492 1.762409,-4.7925149 2.705452,-5.1635477 7.776241,-8.8429607 13.542716,-9.8633027 1.685109,-0.293733 4.653376,-0.293733 6.431243,0 z"
       id="path22-3"
       style="fill:#000000;fill-opacity:1;stroke:none;stroke-width:0.01545972"
       sodipodi:nodetypes="ccccccccccccccccccccccccccccccccsccscsccscccccc" />
  </g>
</svg>
