<?xml version="1.0" encoding="UTF-8" standalone="no"?>
<!-- Created with Inkscape (http://www.inkscape.org/) -->

<svg
   xmlns:dc="http://purl.org/dc/elements/1.1/"
   xmlns:cc="http://creativecommons.org/ns#"
   xmlns:rdf="http://www.w3.org/1999/02/22-rdf-syntax-ns#"
   xmlns:svg="http://www.w3.org/2000/svg"
   xmlns="http://www.w3.org/2000/svg"
   xmlns:sodipodi="http://sodipodi.sourceforge.net/DTD/sodipodi-0.dtd"
   xmlns:inkscape="http://www.inkscape.org/namespaces/inkscape"
   width="56.681149"
   height="64.014198"
   id="svg3392"
   version="1.1"
   inkscape:version="0.92.3 (2405546, 2018-03-11)"
   viewBox="0 0 56.681149 64.014198"
   sodipodi:docname="cpp.svg">
  <defs
     id="defs3394" />
  <sodipodi:namedview
     id="base"
     pagecolor="#ffffff"
     bordercolor="#666666"
     borderopacity="1.0"
     inkscape:pageopacity="0.0"
     inkscape:pageshadow="2"
     inkscape:zoom="8.0000004"
     inkscape:cx="15.751691"
     inkscape:cy="70.037426"
     inkscape:current-layer="layer1"
     showgrid="true"
     inkscape:grid-bbox="true"
     inkscape:document-units="px"
     inkscape:window-width="1920"
     inkscape:window-height="1026"
     inkscape:window-x="0"
     inkscape:window-y="0"
     inkscape:window-maximized="1"
     inkscape:measure-start="0,0"
     inkscape:measure-end="0,0"
     fit-margin-top="0"
     fit-margin-left="0"
     fit-margin-right="0"
     fit-margin-bottom="0" />
  <metadata
     id="metadata3397">
    <rdf:RDF>
      <cc:Work
         rdf:about="">
        <dc:format>image/svg+xml</dc:format>
        <dc:type
           rdf:resource="http://purl.org/dc/dcmitype/StillImage" />
        <dc:title />
      </cc:Work>
    </rdf:RDF>
  </metadata>
  <g
     id="layer1"
     inkscape:label="Layer 1"
     inkscape:groupmode="layer"
     transform="translate(-3.6594257,-0.24290026)">
    <g
       style="fill:#000000;fill-opacity:1;stroke:none"
       transform="matrix(0.00761603,0,0,-0.00761603,-3.1324636,65.307436)"
       id="g18">
      <path
         inkscape:connector-curvature="0"
         d="M 3911.1892,8517.5077 C 3825.8748,8495.1635 3701.9658,8428.1308 3108.8279,8084.842 2414.1253,7680.6145 1902.2391,7386.0768 1179.0984,6969.6615 606.27339,6640.5919 508.77127,6563.4026 421.42561,6376.5236 L 366.58067,6260.7398 V 4331.0103 2401.2808 l 54.84494,-115.7837 c 28.43812,-62.9702 87.34566,-148.2846 132.03413,-192.973 79.22048,-79.2205 3176.94416,-1885.04105 3315.07216,-1931.76081 89.377,-30.46941 341.2574,-30.46941 430.6344,0 65.0014,20.31294 473.2916,255.94307 2455.8348,1403.62421 440.7908,253.9119 826.7367,487.5108 857.2062,515.9488 28.4381,28.4381 83.283,107.6586 121.8776,176.7227 l 67.0327,123.9088 6.0939,1923.6357 c 4.0625,1885.041 4.0625,1923.6356 -36.5633,2031.2942 -67.0327,180.7852 -192.973,296.569 -538.293,495.6358 -554.5433,318.9132 -1580.3468,910.0198 -2143.0154,1237.0582 -150.3158,87.3456 -383.9146,221.4111 -515.9487,296.5689 -310.788,176.7226 -452.9786,209.2234 -662.2019,152.3471 z m 591.1066,-1710.3498 c 524.0738,-87.3456 1009.5533,-345.32 1385.3427,-737.3597 182.8164,-190.9418 371.7267,-452.9786 351.4138,-487.5106 -8.1252,-12.1878 -115.7837,-79.2205 -241.724,-150.3158 -402.1963,-229.5362 -775.9544,-444.8535 -796.2673,-463.1351 -28.4381,-22.3442 -52.8136,-4.0626 -130.0028,105.6273 -77.1892,109.6899 -235.6302,251.8805 -369.6956,329.0697 -296.569,170.6286 -674.3897,211.2545 -983.1464,107.6586 -213.2859,-73.1266 -357.5079,-164.5348 -511.8862,-320.9445 -286.4124,-294.5377 -414.384,-735.3285 -320.9445,-1125.3371 87.3457,-369.6954 331.1011,-680.4835 660.1706,-836.8932 201.0982,-95.4708 331.1011,-125.9401 538.2931,-125.9401 322.9757,0 615.4821,117.815 845.0184,339.226 79.2204,75.1579 160.4722,166.5662 182.8165,203.1295 22.3442,36.5633 50.7823,67.0326 60.9388,67.0326 10.1564,0 60.9388,-26.4067 113.7525,-58.9074 54.8448,-30.4695 284.3811,-164.5348 513.9173,-296.569 229.5363,-132.0341 424.5406,-247.8179 434.6971,-255.943 32.5007,-28.4382 -176.7227,-308.7568 -383.9147,-517.9801 -487.5106,-491.5732 -1078.6172,-739.3912 -1767.2259,-739.3912 -857.2062,0 -1614.879,412.3529 -2096.2957,1143.6188 -225.4737,343.2887 -341.2574,670.327 -392.0397,1111.1178 -30.4694,251.8805 -16.2505,475.323 50.7823,784.0797 56.8762,260.0056 99.5333,375.7893 231.5675,629.7012 355.4765,678.4522 1021.741,1161.9003 1779.4137,1295.9656 221.4112,38.5947 611.4196,38.5947 845.0185,0 z M 6308.1163,4485.3887 h 282.3501 v -282.35 h -282.3501 v -282.35 h -282.3501 v 282.35 h -282.3501 v 282.35 h 282.3501 c 0.092,94.1167 0.039,188.2333 2e-4,282.3499 h 282.3499 z m 1031.8245,0 c 282.35,0 0,0 282.35,0 0,-282.35 0,0 0,-282.35 -282.35,0 0,0 -282.35,0 0,-282.35 0,0 0,-282.35 -282.3501,0 0,0 -282.3501,0 0,282.35 0,0 0,282.35 -282.3501,0 0,0 -282.3501,0 0,282.35 0,0 0,282.35 282.3501,0 0,0 282.3501,0 0,282.35 0,0 0,282.35 282.3501,0 0,0 282.3501,0 0,-282.35 0,0 0,-282.35 z"
         id="path22"
         style="fill:#000000;fill-opacity:1;stroke-width:2.03129435"
         sodipodi:nodetypes="ccccccccscccccccccccccccccscccccsccscsccscccccccccccccccccccccccccccccccc" />
    </g>
  </g>
</svg>
