<?xml version="1.0" encoding="UTF-8" standalone="no"?>
<!-- Created with Inkscape (http://www.inkscape.org/) -->

<svg
   xmlns:dc="http://purl.org/dc/elements/1.1/"
   xmlns:cc="http://creativecommons.org/ns#"
   xmlns:rdf="http://www.w3.org/1999/02/22-rdf-syntax-ns#"
   xmlns:svg="http://www.w3.org/2000/svg"
   xmlns="http://www.w3.org/2000/svg"
   xmlns:sodipodi="http://sodipodi.sourceforge.net/DTD/sodipodi-0.dtd"
   xmlns:inkscape="http://www.inkscape.org/namespaces/inkscape"
   width="64"
   height="64"
   id="svg7473"
   version="1.1"
   inkscape:version="0.92.3 (2405546, 2018-03-11)"
   viewBox="0 0 64 64"
   sodipodi:docname="css.svg">
  <defs
     id="defs7475">
    <inkscape:path-effect
       effect="spiro"
       id="path-effect8184"
       is_visible="true" />
    <inkscape:path-effect
       effect="spiro"
       id="path-effect8159"
       is_visible="true" />
    <inkscape:path-effect
       effect="spiro"
       id="path-effect7524"
       is_visible="true" />
  </defs>
  <sodipodi:namedview
     id="base"
     pagecolor="#ffffff"
     bordercolor="#666666"
     borderopacity="1.0"
     inkscape:pageopacity="0.0"
     inkscape:pageshadow="2"
     inkscape:zoom="2.8284273"
     inkscape:cx="-195.08326"
     inkscape:cy="58.95704"
     inkscape:current-layer="g8200"
     showgrid="true"
     inkscape:grid-bbox="true"
     inkscape:document-units="px"
     inkscape:window-width="1920"
     inkscape:window-height="1026"
     inkscape:window-x="0"
     inkscape:window-y="0"
     inkscape:window-maximized="1"
     inkscape:pagecheckerboard="false"
     showborder="true"
     inkscape:showpageshadow="false"
     viewbox-height="64" />
  <metadata
     id="metadata7478">
    <rdf:RDF>
      <cc:Work
         rdf:about="">
        <dc:format>image/svg+xml</dc:format>
        <dc:type
           rdf:resource="http://purl.org/dc/dcmitype/StillImage" />
        <dc:title />
      </cc:Work>
    </rdf:RDF>
  </metadata>
  <g
     id="layer1"
     inkscape:label="Layer 1"
     inkscape:groupmode="layer"
     transform="translate(0,32)">
    <g
       id="g8200"
       transform="translate(35.793911,3.1806718)"
       style="fill:#ac4142;fill-opacity:1">
      <g
         id="g8186"
         style="fill:#ac4142;fill-opacity:1"
         transform="translate(-15.202794,-12.462756)" />
      <g
         id="g4165"
         transform="matrix(0.51065804,0,0,0.51065804,-18.677038,-18.417609)">
        <path
           style="fill:#000000;stroke-width:0.51065803"
           d="M 3.7910156,0.0078125 8.9257812,57.595703 31.964844,63.992188 55.070312,57.585938 60.208984,0.0078125 Z M 14.332031,11.285156 H 32 32.02539 49.710937 l -0.169922,1.894532 -1.708985,19.164062 -0.02734,0.298828 -1.201172,13.429688 -0.105469,1.193359 -14.455078,4.003906 v 0.002 l -0.0332,0.0098 -14.466797,-4.015625 -0.990235,-11.089844 h 7.089844 l 0.503906,5.632813 7.865235,2.123047 0.0059,-0.002 7.876953,-2.126954 0.824219,-9.160156 H 32 v 0.002 h -7.765625 l -0.142578,-1.58789 -0.322266,-3.580079 -0.167969,-1.894531 H 32 v -0.002 h 9.345703 L 41.992188,18.34769 H 32.025391 32 14.964844 L 14.822266,16.7598 14.501953,13.179722 Z"
           transform="matrix(1.9582576,0,0,1.9582576,1.3357549,1.3362547)"
           id="path4147"
           inkscape:connector-curvature="0" />
      </g>
    </g>
  </g>
</svg>
