<?xml version="1.0" encoding="UTF-8" standalone="no"?>
<!-- Created with Inkscape (http://www.inkscape.org/) -->

<svg
   xmlns:dc="http://purl.org/dc/elements/1.1/"
   xmlns:cc="http://creativecommons.org/ns#"
   xmlns:rdf="http://www.w3.org/1999/02/22-rdf-syntax-ns#"
   xmlns:svg="http://www.w3.org/2000/svg"
   xmlns="http://www.w3.org/2000/svg"
   xmlns:sodipodi="http://sodipodi.sourceforge.net/DTD/sodipodi-0.dtd"
   xmlns:inkscape="http://www.inkscape.org/namespaces/inkscape"
   width="41.76395"
   height="63.984463"
   id="svg4230"
   version="1.1"
   inkscape:version="0.92.3 (2405546, 2018-03-11)"
   viewBox="0 0 41.76395 63.984463"
   sodipodi:docname="elixir.svg">
  <defs
     id="defs4232" />
  <sodipodi:namedview
     id="base"
     pagecolor="#ffffff"
     bordercolor="#666666"
     borderopacity="1.0"
     inkscape:pageopacity="0.0"
     inkscape:pageshadow="2"
     inkscape:zoom="5.6568543"
     inkscape:cx="-42.771971"
     inkscape:cy="23.954063"
     inkscape:current-layer="layer1"
     showgrid="true"
     inkscape:grid-bbox="true"
     inkscape:document-units="px"
     inkscape:window-width="1920"
     inkscape:window-height="1026"
     inkscape:window-x="0"
     inkscape:window-y="0"
     inkscape:window-maximized="1"
     fit-margin-top="0"
     fit-margin-left="0"
     fit-margin-right="0"
     fit-margin-bottom="0" />
  <metadata
     id="metadata4235">
    <rdf:RDF>
      <cc:Work
         rdf:about="">
        <dc:format>image/svg+xml</dc:format>
        <dc:type
           rdf:resource="http://purl.org/dc/dcmitype/StillImage" />
        <dc:title></dc:title>
      </cc:Work>
    </rdf:RDF>
  </metadata>
  <g
     id="layer1"
     inkscape:label="Layer 1"
     inkscape:groupmode="layer"
     transform="translate(-11.118024,31.992234)">
    <path
       id="path4789-0-2-3"
       d="m 33.595412,-31.992233 c 0,0 -6.892314,2.249719 -14.119799,15.712752 -2.6415,4.920464 -5.324621,9.9196334 -6.825779,15.29755827 -1.065457,3.81701463 -1.732577,7.84031193 -1.477373,11.79464073 0.237045,3.672931 0.982441,7.470956 2.769065,10.69015 1.603222,2.888748 4.071105,5.359452 6.82578,7.187236 2.464919,1.635524 5.373776,2.745155 8.307187,3.136098 3.185612,0.424553 6.522469,0.0056 9.598879,-0.923092 2.871764,-0.866768 5.752585,-2.185793 7.935829,-4.240591 2.311238,-2.17526 3.885042,-5.129571 4.981082,-8.106295 0.966902,-2.625998 1.090125,-3.183313 1.291692,-8.295749 C 52.746663,6.4224817 51.102542,3.9543769 49.103779,0.58612626 46.91348,-2.8491059 45.268407,-4.6700357 43.287133,-7.2500949 c -1.385691,-1.8044759 -2.933452,-3.4871701 -4.246434,-5.3450661 -1.003957,-1.42063 -2.051099,-2.837921 -2.769065,-4.421991 -0.794548,-1.753041 -1.277743,-3.644299 -1.659016,-5.530502 -0.627449,-3.104088 -1.017206,-9.444579 -1.017206,-9.444579 z m -9.070094,59.191349 c 0,0 3.259557,0.384203 4.843842,0.709452 1.051193,0.215804 1.448198,0.281732 1.501592,0.854565 0.02161,0.231603 -0.32561,0.345238 -0.532824,0.45147 -0.434305,0.222661 -0.932882,0.340054 -1.420859,0.354728 -0.585586,0.01755 -1.179219,-0.116698 -1.727636,-0.322478 -0.54435,-0.204254 -1.042111,-0.530894 -1.501592,-0.886815 -0.433022,-0.335425 -1.162523,-1.160924 -1.162523,-1.160922 z"
       style="fill:#000000;fill-opacity:1;fill-rule:evenodd;stroke:#000000;stroke-width:0;stroke-linecap:butt;stroke-linejoin:miter;stroke-miterlimit:4;stroke-dasharray:none;stroke-opacity:1"
       inkscape:connector-curvature="0"
       sodipodi:nodetypes="cssscsscssccscscccccccccc" />
  </g>
</svg>
