<?xml version="1.0" encoding="UTF-8" standalone="no"?>
<!-- Created with Inkscape (http://www.inkscape.org/) -->

<svg
   xmlns:dc="http://purl.org/dc/elements/1.1/"
   xmlns:cc="http://creativecommons.org/ns#"
   xmlns:rdf="http://www.w3.org/1999/02/22-rdf-syntax-ns#"
   xmlns:svg="http://www.w3.org/2000/svg"
   xmlns="http://www.w3.org/2000/svg"
   xmlns:sodipodi="http://sodipodi.sourceforge.net/DTD/sodipodi-0.dtd"
   xmlns:inkscape="http://www.inkscape.org/namespaces/inkscape"
   width="32"
   height="32"
   id="svg7384"
   version="1.1"
   inkscape:version="0.91 r13725"
   viewBox="0 0 32 32"
   sodipodi:docname="gobstones.svg">
  <defs
     id="defs7386" />
  <sodipodi:namedview
     id="base"
     pagecolor="#ffffff"
     bordercolor="#666666"
     borderopacity="1.0"
     inkscape:pageopacity="0.0"
     inkscape:pageshadow="2"
     inkscape:zoom="11.197802"
     inkscape:cx="8.9003924"
     inkscape:cy="19.57213"
     inkscape:current-layer="layer1"
     showgrid="true"
     inkscape:grid-bbox="true"
     inkscape:document-units="px"
     inkscape:window-width="1366"
     inkscape:window-height="717"
     inkscape:window-x="0"
     inkscape:window-y="0"
     inkscape:window-maximized="1" />
  <metadata
     id="metadata7389">
    <rdf:RDF>
      <cc:Work
         rdf:about="">
        <dc:format>image/svg+xml</dc:format>
        <dc:type
           rdf:resource="http://purl.org/dc/dcmitype/StillImage" />
        <dc:title></dc:title>
      </cc:Work>
    </rdf:RDF>
  </metadata>
  <g
     id="layer1"
     inkscape:label="Layer 1"
     inkscape:groupmode="layer">
    <path
       style="fill:#000000"
       d="m 15.882523,0.50465155 a 1.8209385,1.8209385 0 0 0 -1.82097,1.82096865 1.8209385,1.8209385 0 0 0 1.82097,1.8208839 1.8209385,1.8209385 0 0 0 1.820968,-1.8208839 1.8209385,1.8209385 0 0 0 -1.820968,-1.82096865 z M 15.192338,1.0383953 a 0.2202748,0.2202748 0 0 1 0.220263,0.2203494 0.2202748,0.2202748 0 0 1 -0.220263,0.2202565 0.2202748,0.2202748 0 0 1 -0.220257,-0.2202565 0.2202748,0.2202748 0 0 1 0.220257,-0.2203494 z m 3.539113,2.141453 A 1.8209385,1.8209385 0 0 0 16.910488,5.0008169 1.8209385,1.8209385 0 0 0 18.731451,6.8217015 1.8209385,1.8209385 0 0 0 20.55242,5.0008169 1.8209385,1.8209385 0 0 0 18.731451,3.1798483 Z m -5.550939,0.090711 a 1.8209385,1.8209385 0 0 0 -1.820963,1.8209683 1.8209385,1.8209385 0 0 0 1.820963,1.8208842 1.8209385,1.8209385 0 0 0 1.820969,-1.8208842 1.8209385,1.8209385 0 0 0 -1.820969,-1.8209685 z m 4.86076,0.4430277 A 0.2202748,0.2202748 0 0 1 18.26153,3.9339365 0.2202748,0.2202748 0 0 1 18.041272,4.1541931 0.2202748,0.2202748 0 0 1 17.821015,3.9339365 0.2202748,0.2202748 0 0 1 18.041272,3.7135871 Z M 12.490334,3.804298 A 0.2202748,0.2202748 0 0 1 12.710592,4.0246464 0.2202748,0.2202748 0 0 1 12.490334,4.244904 0.2202748,0.2202748 0 0 1 12.270077,4.0246464 0.2202748,0.2202748 0 0 1 12.490334,3.804298 Z m 3.539027,2.141459 a 1.8209385,1.8209385 0 0 0 -1.820969,1.8209635 1.8209385,1.8209385 0 0 0 1.820969,1.8208829 1.8209385,1.8209385 0 0 0 1.82097,-1.8208829 1.8209385,1.8209385 0 0 0 -1.82097,-1.8209635 z m -5.60966,0.053638 A 1.8209385,1.8209385 0 0 0 8.5987378,7.8203636 1.8209385,1.8209385 0 0 0 10.419701,9.6412412 1.8209385,1.8209385 0 0 0 12.24067,7.8203636 1.8209385,1.8209385 0 0 0 10.419701,5.9993947 Z m 4.919481,0.4801231 a 0.2202748,0.2202748 0 0 1 0.220257,0.2203592 0.2202748,0.2202748 0 0 1 -0.220257,0.220257 0.2202748,0.2202748 0 0 1 -0.220263,-0.220257 0.2202748,0.2202748 0 0 1 0.220263,-0.2203487 z M 9.7295227,6.5331548 A 0.2202748,0.2202748 0 0 1 9.9497798,6.7534981 0.2202748,0.2202748 0 0 1 9.7295227,6.973761 0.2202748,0.2202748 0 0 1 9.5092651,6.7534981 0.2202748,0.2202748 0 0 1 9.7295227,6.5331548 Z m 14.4353433,2.168357 a 1.8209385,1.8209385 0 0 0 -1.820965,1.8209702 1.8209385,1.8209385 0 0 0 1.820965,1.820882 1.8209385,1.8209385 0 0 0 1.820968,-1.820882 1.8209385,1.8209385 0 0 0 -1.820968,-1.8209702 z M 7.7176966,8.7653348 A 1.8209385,1.8209385 0 0 0 5.8967276,10.586303 1.8209385,1.8209385 0 0 0 7.7176966,12.407187 1.8209385,1.8209385 0 0 0 9.5386661,10.586303 1.8209385,1.8209385 0 0 0 7.7176966,8.7653348 Z M 23.474687,9.2352564 A 0.2202748,0.2202748 0 0 1 23.694945,9.455605 0.2202748,0.2202748 0 0 1 23.474687,9.6758626 0.2202748,0.2202748 0 0 1 23.25443,9.455605 0.2202748,0.2202748 0 0 1 23.474687,9.2352564 Z M 7.0275178,9.2990784 A 0.2202748,0.2202748 0 0 1 7.2477759,9.5194217 0.2202748,0.2202748 0 0 1 7.0275178,9.7396838 0.2202748,0.2202748 0 0 1 6.8072554,9.5194217 0.2202748,0.2202748 0 0 1 7.0275178,9.2990784 Z M 5.0450075,11.406115 a 1.8209385,1.8209385 0 0 0 -1.8209692,1.820969 1.8209385,1.8209385 0 0 0 1.8209692,1.820877 1.8209385,1.8209385 0 0 0 1.8209692,-1.820877 1.8209385,1.8209385 0 0 0 -1.8209692,-1.820969 z m 21.9099905,0.05614 a 1.8209385,1.8209385 0 0 0 -1.82097,1.820968 1.8209385,1.8209385 0 0 0 1.82097,1.820883 1.8209385,1.8209385 0 0 0 1.820964,-1.820883 1.8209385,1.8209385 0 0 0 -1.820964,-1.820968 z m -5.492136,0.0051 a 1.8209385,1.8209385 0 0 0 -1.820969,1.820968 1.8209385,1.8209385 0 0 0 1.820969,1.820883 1.8209385,1.8209385 0 0 0 1.820969,-1.820883 1.8209385,1.8209385 0 0 0 -1.820969,-1.820968 z M 4.3548231,11.939926 A 0.2202748,0.2202748 0 0 1 4.5750864,12.16027 0.2202748,0.2202748 0 0 1 4.3548231,12.380533 0.2202748,0.2202748 0 0 1 4.1345658,12.16027 0.2202748,0.2202748 0 0 1 4.3548231,11.939926 Z m 21.9099899,0.05614 a 0.2202748,0.2202748 0 0 1 0.220264,0.22035 0.2202748,0.2202748 0 0 1 -0.220264,0.220258 0.2202748,0.2202748 0 0 1 -0.220257,-0.220258 0.2202748,0.2202748 0 0 1 0.220257,-0.22035 z m -5.49213,0.0051 a 0.2202748,0.2202748 0 0 1 0.220257,0.22035 0.2202748,0.2202748 0 0 1 -0.220257,0.220257 0.2202748,0.2202748 0 0 1 -0.220263,-0.220257 0.2202748,0.2202748 0 0 1 0.220263,-0.22035 z M 7.805819,14.164471 a 1.8209385,1.8209385 0 0 0 -1.8209691,1.82097 1.8209385,1.8209385 0 0 0 1.8209691,1.820878 1.8209385,1.8209385 0 0 0 1.8209694,-1.820878 1.8209385,1.8209385 0 0 0 -1.8209694,-1.82097 z m 16.447169,0.06382 a 1.8209385,1.8209385 0 0 0 -1.820969,1.820969 1.8209385,1.8209385 0 0 0 1.820969,1.820882 1.8209385,1.8209385 0 0 0 1.820968,-1.820882 1.8209385,1.8209385 0 0 0 -1.820968,-1.820969 z m -5.492216,0.114926 a 1.8209385,1.8209385 0 0 0 -1.820969,1.82097 1.8209385,1.8209385 0 0 0 1.820969,1.820883 1.8209385,1.8209385 0 0 0 1.820963,-1.820883 1.8209385,1.8209385 0 0 0 -1.820963,-1.82097 z M 7.1156348,14.698216 a 0.2202748,0.2202748 0 0 1 0.2202635,0.220342 0.2202748,0.2202748 0 0 1 -0.2202635,0.220259 0.2202748,0.2202748 0 0 1 -0.2202571,-0.220259 0.2202748,0.2202748 0 0 1 0.2202571,-0.220342 z m 16.4471752,0.06382 a 0.2202748,0.2202748 0 0 1 0.220257,0.22035 0.2202748,0.2202748 0 0 1 -0.220257,0.220256 0.2202748,0.2202748 0 0 1 -0.220264,-0.220256 0.2202748,0.2202748 0 0 1 0.220264,-0.22035 z m -5.492223,0.114929 a 0.2202748,0.2202748 0 0 1 0.220262,0.220349 0.2202748,0.2202748 0 0 1 -0.220262,0.220258 0.2202748,0.2202748 0 0 1 -0.220256,-0.220258 0.2202748,0.2202748 0 0 1 0.220256,-0.220349 z M 10.507824,16.9252 A 1.8209385,1.8209385 0 0 0 8.6868547,18.746169 1.8209385,1.8209385 0 0 0 10.507824,20.567047 1.8209385,1.8209385 0 0 0 12.328793,18.746169 1.8209385,1.8209385 0 0 0 10.507824,16.9252 Z M 5.1037235,16.9303 A 1.8209385,1.8209385 0 0 0 3.2827544,18.751308 1.8209385,1.8209385 0 0 0 5.1037235,20.572185 1.8209385,1.8209385 0 0 0 6.924693,18.751308 1.8209385,1.8209385 0 0 0 5.1037235,16.93034 Z m 21.8219595,0.05364 a 1.8209385,1.8209385 0 0 0 -1.82097,1.820969 1.8209385,1.8209385 0 0 0 1.82097,1.820882 1.8209385,1.8209385 0 0 0 1.820963,-1.820882 1.8209385,1.8209385 0 0 0 -1.820963,-1.820943 z M 9.8176451,17.458999 a 0.2202748,0.2202748 0 0 1 0.2202569,0.22035 0.2202748,0.2202748 0 0 1 -0.2202569,0.220257 0.2202748,0.2202748 0 0 1 -0.2202632,-0.220257 0.2202748,0.2202748 0 0 1 0.2202632,-0.22035 z m -5.4041004,0.0051 a 0.2202748,0.2202748 0 0 1 0.2202576,0.220344 0.2202748,0.2202748 0 0 1 -0.2202576,0.220263 0.2202748,0.2202748 0 0 1 -0.220263,-0.220263 0.2202748,0.2202748 0 0 1 0.220263,-0.220343 z m 21.8219543,0.05364 a 0.2202748,0.2202748 0 0 1 0.220257,0.220344 0.2202748,0.2202748 0 0 1 -0.220257,0.220263 0.2202748,0.2202748 0 0 1 -0.220258,-0.220263 0.2202748,0.2202748 0 0 1 0.220258,-0.220344 z M 13.209833,19.62737 a 1.8209385,1.8209385 0 0 0 -1.820969,1.820969 1.8209385,1.8209385 0 0 0 1.820969,1.820883 1.8209385,1.8209385 0 0 0 1.820964,-1.820883 1.8209385,1.8209385 0 0 0 -1.820964,-1.820969 z M 7.805819,19.69119 A 1.8209385,1.8209385 0 0 0 5.9848499,21.512158 1.8209385,1.8209385 0 0 0 7.805819,23.333035 1.8209385,1.8209385 0 0 0 9.6267884,21.512158 1.8209385,1.8209385 0 0 0 7.805819,19.691188 Z m 16.417768,0.05872 a 1.8209385,1.8209385 0 0 0 -1.820969,1.820969 1.8209385,1.8209385 0 0 0 1.820969,1.820883 1.8209385,1.8209385 0 0 0 1.820969,-1.820883 1.8209385,1.8209385 0 0 0 -1.820969,-1.820969 z m -11.703938,0.411245 a 0.2202748,0.2202748 0 0 1 0.220258,0.220343 0.2202748,0.2202748 0 0 1 -0.220258,0.220264 0.2202748,0.2202748 0 0 1 -0.220258,-0.220264 0.2202748,0.2202748 0 0 1 0.220258,-0.220343 z m -5.4040142,0.06382 a 0.2202748,0.2202748 0 0 1 0.2202635,0.220344 0.2202748,0.2202748 0 0 1 -0.2202635,0.220257 0.2202748,0.2202748 0 0 1 -0.2202571,-0.220257 0.2202748,0.2202748 0 0 1 0.2202571,-0.220344 z m 16.4177692,0.05872 a 0.2202748,0.2202748 0 0 1 0.220262,0.22035 0.2202748,0.2202748 0 0 1 -0.220262,0.220256 0.2202748,0.2202748 0 0 1 -0.220259,-0.220256 0.2202748,0.2202748 0 0 1 0.220259,-0.22035 z m -13.02558,2.109544 a 1.8209385,1.8209385 0 0 0 -1.8209693,1.820969 1.8209385,1.8209385 0 0 0 1.8209693,1.820883 1.8209385,1.8209385 0 0 0 1.820969,-1.820883 1.8209385,1.8209385 0 0 0 -1.820969,-1.820969 z m 5.404099,0.02428 a 1.8209385,1.8209385 0 0 0 -1.820968,1.820969 1.8209385,1.8209385 0 0 0 1.820968,1.820883 1.8209385,1.8209385 0 0 0 1.820969,-1.820883 1.8209385,1.8209385 0 0 0 -1.820969,-1.820969 z m 5.492138,0 a 1.8209385,1.8209385 0 0 0 -1.820969,1.820969 1.8209385,1.8209385 0 0 0 1.820969,1.820883 1.8209385,1.8209385 0 0 0 1.820962,-1.820883 1.8209385,1.8209385 0 0 0 -1.820962,-1.820969 z m -11.5864159,0.50944 a 0.2202748,0.2202748 0 0 1 0.2202569,0.220343 0.2202748,0.2202748 0 0 1 -0.2202569,0.220265 0.2202748,0.2202748 0 0 1 -0.2202632,-0.220265 0.2202748,0.2202748 0 0 1 0.2202632,-0.220343 z m 5.4041009,0.02428 a 0.2202748,0.2202748 0 0 1 0.220257,0.220349 0.2202748,0.2202748 0 0 1 -0.220257,0.220258 0.2202748,0.2202748 0 0 1 -0.220265,-0.220258 0.2202748,0.2202748 0 0 1 0.220265,-0.220349 z m 5.492129,0 a 0.2202748,0.2202748 0 0 1 0.220257,0.220349 0.2202748,0.2202748 0 0 1 -0.220257,0.220258 0.2202748,0.2202748 0 0 1 -0.220256,-0.220258 0.2202748,0.2202748 0 0 1 0.220256,-0.220348 z m -7.504042,2.23217 a 1.8209385,1.8209385 0 0 0 -1.820969,1.820969 1.8209385,1.8209385 0 0 0 1.820969,1.820882 1.8209385,1.8209385 0 0 0 1.820964,-1.820882 1.8209385,1.8209385 0 0 0 -1.820964,-1.820969 z m 5.492217,0 a 1.8209385,1.8209385 0 0 0 -1.820969,1.820969 1.8209385,1.8209385 0 0 0 1.820969,1.820882 1.8209385,1.8209385 0 0 0 1.820969,-1.820882 1.8209385,1.8209385 0 0 0 -1.820969,-1.820969 z m -6.182401,0.533735 a 0.2202748,0.2202748 0 0 1 0.220258,0.220349 0.2202748,0.2202748 0 0 1 -0.220258,0.220256 0.2202748,0.2202748 0 0 1 -0.220258,-0.220256 0.2202748,0.2202748 0 0 1 0.220258,-0.220349 z m 5.492222,0 a 0.2202748,0.2202748 0 0 1 0.220257,0.220349 0.2202748,0.2202748 0 0 1 -0.220257,0.220256 0.2202748,0.2202748 0 0 1 -0.220263,-0.220256 0.2202748,0.2202748 0 0 1 0.220263,-0.220349 z m -2.011825,2.136357 a 1.8209385,1.8209385 0 0 0 -1.82097,1.820963 1.8209385,1.8209385 0 0 0 1.82097,1.820884 1.8209385,1.8209385 0 0 0 1.820969,-1.820884 1.8209385,1.8209385 0 0 0 -1.820969,-1.820963 z m -0.690185,0.533738 a 0.2202748,0.2202748 0 0 1 0.220264,0.220349 0.2202748,0.2202748 0 0 1 -0.220264,0.220258 0.2202748,0.2202748 0 0 1 -0.220257,-0.220258 0.2202748,0.2202748 0 0 1 0.220257,-0.220349 z"
       id="path5223"
       inkscape:connector-curvature="0" />
  </g>
</svg>
