<?xml version="1.0" encoding="UTF-8" standalone="no"?>
<!-- Created with Inkscape (http://www.inkscape.org/) -->

<svg
   xmlns:dc="http://purl.org/dc/elements/1.1/"
   xmlns:cc="http://creativecommons.org/ns#"
   xmlns:rdf="http://www.w3.org/1999/02/22-rdf-syntax-ns#"
   xmlns:svg="http://www.w3.org/2000/svg"
   xmlns="http://www.w3.org/2000/svg"
   xmlns:sodipodi="http://sodipodi.sourceforge.net/DTD/sodipodi-0.dtd"
   xmlns:inkscape="http://www.inkscape.org/namespaces/inkscape"
   width="64"
   height="64"
   id="svg7473"
   version="1.1"
   inkscape:version="0.92.3 (2405546, 2018-03-11)"
   viewBox="0 0 64.000001 64"
   sodipodi:docname="html.svg">
  <defs
     id="defs7475">
    <inkscape:path-effect
       effect="spiro"
       id="path-effect8184"
       is_visible="true" />
    <inkscape:path-effect
       effect="spiro"
       id="path-effect8159"
       is_visible="true" />
    <inkscape:path-effect
       effect="spiro"
       id="path-effect7524"
       is_visible="true" />
  </defs>
  <sodipodi:namedview
     id="base"
     pagecolor="#ffffff"
     bordercolor="#666666"
     borderopacity="1.0"
     inkscape:pageopacity="0.0"
     inkscape:pageshadow="2"
     inkscape:zoom="8"
     inkscape:cx="35.920886"
     inkscape:cy="49.582974"
     inkscape:current-layer="g8200"
     showgrid="true"
     inkscape:grid-bbox="true"
     inkscape:document-units="px"
     inkscape:window-width="1920"
     inkscape:window-height="1026"
     inkscape:window-x="0"
     inkscape:window-y="0"
     inkscape:window-maximized="1"
     fit-margin-top="0"
     fit-margin-left="0"
     fit-margin-right="0"
     fit-margin-bottom="0" />
  <metadata
     id="metadata7478">
    <rdf:RDF>
      <cc:Work
         rdf:about="">
        <dc:format>image/svg+xml</dc:format>
        <dc:type
           rdf:resource="http://purl.org/dc/dcmitype/StillImage" />
        <dc:title />
      </cc:Work>
    </rdf:RDF>
  </metadata>
  <g
     id="layer1"
     inkscape:label="Layer 1"
     inkscape:groupmode="layer"
     transform="translate(28.214845,54.001952)">
    <g
       id="g8200"
       transform="translate(35.793911,3.1806718)"
       style="fill:#ac4142;fill-opacity:1">
      <g
         id="g8186"
         style="fill:#ac4142;fill-opacity:1" />
      <g
         id="g3374"
         transform="matrix(2.0119374,0,0,2.0119374,-54.230362,-108.05037)">
        <path
           style="fill:#000000;stroke-width:0.15556249"
           d="M 3.7851562,0.00195313 8.921875,57.599609 31.964844,63.998047 55.072266,57.591797 60.214844,0.00195313 Z M 14.287109,11.775391 H 31.974609 32 49.671875 l -0.169922,1.896484 -0.322265,3.580078 -0.140626,1.587891 H 49.015625 32 31.97461 22.00586 l 0.646485,7.234375 H 31.974609 32 46.492188 48.396484 l -0.171875,1.896484 -1.660156,18.597656 -0.107422,1.19336 L 32,51.767578 v 0.002 l -0.0332,0.0098 L 17.496097,47.7618 16.507815,36.670003 h 3.267579 3.824218 l 0.501953,5.634766 7.867188,2.125 0.0059,-0.002 v -0.002 l 7.878907,-2.125 0.820312,-9.162109 H 32 31.974609 16.191406 L 14.455078,13.671875 Z"
           transform="matrix(0.49703336,0,0,0.49703336,-37.105227,-3.1721948)"
           id="polygon6"
           inkscape:connector-curvature="0" />
      </g>
    </g>
  </g>
</svg>
