<?xml version="1.0" encoding="UTF-8" standalone="no"?>
<!-- Generated by IcoMoon.io -->

<svg
   xmlns:dc="http://purl.org/dc/elements/1.1/"
   xmlns:cc="http://creativecommons.org/ns#"
   xmlns:rdf="http://www.w3.org/1999/02/22-rdf-syntax-ns#"
   xmlns:svg="http://www.w3.org/2000/svg"
   xmlns="http://www.w3.org/2000/svg"
   xmlns:sodipodi="http://sodipodi.sourceforge.net/DTD/sodipodi-0.dtd"
   xmlns:inkscape="http://www.inkscape.org/namespaces/inkscape"
   version="1.1"
   width="47.190235"
   height="63.987885"
   viewBox="0 0 47.190235 63.987885"
   id="svg2"
   inkscape:version="0.92.3 (2405546, 2018-03-11)"
   sodipodi:docname="java.svg">
  <metadata
     id="metadata10">
    <rdf:RDF>
      <cc:Work
         rdf:about="">
        <dc:format>image/svg+xml</dc:format>
        <dc:type
           rdf:resource="http://purl.org/dc/dcmitype/StillImage" />
        <dc:title></dc:title>
      </cc:Work>
    </rdf:RDF>
  </metadata>
  <defs
     id="defs8" />
  <sodipodi:namedview
     pagecolor="#ffffff"
     bordercolor="#666666"
     borderopacity="1"
     objecttolerance="10"
     gridtolerance="10"
     guidetolerance="10"
     inkscape:pageopacity="0"
     inkscape:pageshadow="2"
     inkscape:window-width="1920"
     inkscape:window-height="1026"
     id="namedview6"
     showgrid="false"
     inkscape:zoom="11.313709"
     inkscape:cx="-2.3136142"
     inkscape:cy="32.582377"
     inkscape:window-x="0"
     inkscape:window-y="0"
     inkscape:window-maximized="1"
     inkscape:current-layer="svg2"
     fit-margin-top="0"
     fit-margin-left="0"
     fit-margin-right="0"
     fit-margin-bottom="0" />
  <path
     style="fill:#000000;fill-opacity:1;stroke-width:2.05525374"
     d="m 29.994922,0 c 2.68296,10.565086 -9.455058,13.753516 -13.837891,20.333985 -2.984107,4.482385 1.464446,9.29908 7.527344,14.769531 -2.36447,-5.343521 -10.38252,-10.023376 0.0059,-18.226563 C 36.644599,6.650348 29.996875,0 29.996875,0 Z m 8.021484,13.072266 c 0,0 -21.901396,5.470341 -11.443359,17.525391 3.084143,3.553549 -0.8125,6.75 -0.8125,6.75 0,0 7.837131,-4.044067 4.238281,-9.111328 -3.36241,-4.723799 -5.937295,-7.070385 8.017578,-15.164063 z m 4.205078,21.537109 c -0.863289,-0.04127 -1.794064,0.0869 -2.751953,0.423828 -0.671986,0.238931 -1.025391,0.791016 -1.025391,0.791016 0,0 0.422316,-0.170561 1.373047,-0.367187 3.87262,-0.806382 9.426042,5.188772 -2.580078,11.425781 -0.05476,0.146852 -0.242187,0.3125 -0.242187,0.3125 C 51.023839,43.506244 48.264505,34.8983 42.221484,34.609375 Z M 15.582812,35.21875 c -1.530164,0.03978 -5.111039,0.370682 -9.2773433,2.384766 -6.56802338,3.17575 16.2451843,4.62169 28.0546873,1.515625 1.226994,-0.838735 2.923828,-1.564453 2.923828,-1.564453 0,0 -4.833086,0.863852 -9.646484,1.269531 -5.891062,0.492802 -12.212043,0.589654 -15.382813,0.164063 -7.5026963,-1.00185 4.084778,-3.757362 4.111328,-3.763672 -0.0069,-4.58e-4 -0.279429,-0.01896 -0.783203,-0.0059 z m 0.783203,0.0059 c 8.6e-5,5e-6 0.0098,0 0.0098,0 l -0.002,-0.002 c 0,0 -0.0078,0.0019 -0.0078,0.002 z m -2.699218,7.255859 c -10.8388583,3.596362 6.031247,7.675677 21.175781,3.248047 -1.610272,-0.567453 -2.632813,-1.605469 -2.632813,-1.605469 -7.401781,1.4261 -11.680008,1.377814 -17.095703,0.820313 -4.188702,-0.433055 -1.447265,-2.462891 -1.447265,-2.462891 z m 1.529296,7.007813 c -9.8290753,2.750628 5.989287,8.426187 18.513672,3.058593 -2.053285,-0.798916 -3.521484,-1.71875 -3.521484,-1.71875 -5.587428,1.057753 -8.180251,1.139911 -13.25,0.5625 -4.176417,-0.481989 -1.750683,-1.897395 -1.742188,-1.902343 z M 8.8367187,54.128947 C 4.6087637,53.965545 -4.9869752,58.189164 3.2078117,59.517579 28.748191,63.658992 49.762767,57.655101 43.1375,54.666016 v 0.002 c 0,0 1.808791,1.490249 -1.994141,2.642578 -7.230052,2.190171 -30.091863,2.85298 -36.4433593,0.08789 -2.282259,-0.99304 1.999246,-2.371453 3.345703,-2.660156 1.403702,-0.303637 2.2070313,-0.25 2.2070313,-0.25 C 9.9354077,54.264644 9.4407117,54.15229 8.8367187,54.128953 Z m 38.3535153,3.796875 c 0,0 -0.807551,2.068844 -9.523437,3.708984 -9.835859,1.851689 -21.965482,1.634436 -29.1582043,0.447266 0,0 1.473281,1.219663 9.0449223,1.705078 h 0.002 c 11.52333,0.73645 29.216663,-0.408598 29.634765,-5.861328 z"
     id="path4147"
     inkscape:connector-curvature="0" />
</svg>
