<?xml version="1.0" encoding="UTF-8" standalone="no"?>
<!-- Generated by IcoMoon.io -->

<svg
   xmlns:dc="http://purl.org/dc/elements/1.1/"
   xmlns:cc="http://creativecommons.org/ns#"
   xmlns:rdf="http://www.w3.org/1999/02/22-rdf-syntax-ns#"
   xmlns:svg="http://www.w3.org/2000/svg"
   xmlns="http://www.w3.org/2000/svg"
   xmlns:sodipodi="http://sodipodi.sourceforge.net/DTD/sodipodi-0.dtd"
   xmlns:inkscape="http://www.inkscape.org/namespaces/inkscape"
   version="1.1"
   width="32"
   height="32"
   viewBox="0 0 32 32"
   id="svg2"
   inkscape:version="0.91 r13725"
   sodipodi:docname="java.svg">
  <metadata
     id="metadata10">
    <rdf:RDF>
      <cc:Work
         rdf:about="">
        <dc:format>image/svg+xml</dc:format>
        <dc:type
           rdf:resource="http://purl.org/dc/dcmitype/StillImage" />
      </cc:Work>
    </rdf:RDF>
  </metadata>
  <defs
     id="defs8" />
  <sodipodi:namedview
     pagecolor="#ffffff"
     bordercolor="#666666"
     borderopacity="1"
     objecttolerance="10"
     gridtolerance="10"
     guidetolerance="10"
     inkscape:pageopacity="0"
     inkscape:pageshadow="2"
     inkscape:window-width="1366"
     inkscape:window-height="717"
     id="namedview6"
     showgrid="false"
     inkscape:zoom="7.375"
     inkscape:cx="-0.20338983"
     inkscape:cy="16"
     inkscape:window-x="0"
     inkscape:window-y="0"
     inkscape:window-maximized="1"
     inkscape:current-layer="svg2" />
  <path
     d="m 11.914697,24.510799 c 0,0 -1.189164,0.691458 0.846461,0.926384 2.466726,0.280944 3.728546,0.240982 6.447153,-0.273676 0,0 0.714466,0.448054 1.713508,0.836773 -6.094763,2.612041 -13.7928374,-0.15137 -9.005911,-1.489481 z m -0.744741,-3.408854 c 0,0 -1.334478,0.988144 0.703568,1.198851 2.635049,0.271256 4.716691,0.294264 8.318086,-0.399616 0,0 0.497705,0.50497 1.281196,0.781069 -7.368693,2.154298 -15.5765819,0.169534 -10.30285,-1.580304 z m 6.278829,-5.782335 c 1.501591,1.729252 -0.394772,3.285335 -0.394772,3.285335 0,0 3.813313,-1.967809 2.062264,-4.433325 -1.636007,-2.298402 -2.889351,-3.440338 3.900503,-7.3783806 0,0 -10.657661,2.6616906 -5.567995,8.5275816 z m 8.060152,11.712408 c 0,0 0.880367,0.725365 -0.96998,1.28604 -3.517839,1.065645 -14.6417202,1.38776 -17.7320909,0.04238 C 5.6964156,27.877267 7.7792672,27.206395 8.4343965,27.065924 9.1173782,26.918187 9.5085183,26.944828 9.5085183,26.944828 8.273339,26.074149 1.5234466,28.653494 6.0802901,29.39218 18.507164,31.407218 28.732513,28.48517 25.508937,27.030807 Z M 12.48627,17.570785 c 0,0 -5.6588175,1.344167 -2.004139,1.832184 1.542763,0.207074 4.618602,0.159847 7.484945,-0.07993 2.341997,-0.197386 4.693682,-0.617589 4.693682,-0.617589 0,0 -0.825874,0.3536 -1.422878,0.761693 C 15.491873,20.978424 4.3922114,20.274856 7.5879356,18.72967 10.290799,17.423045 12.48748,17.571992 12.48748,17.571992 Z m 10.151479,5.673349 c 5.841673,-3.034666 3.14002,-5.951869 1.255766,-5.559518 -0.462586,0.09567 -0.668449,0.179222 -0.668449,0.179222 0,0 0.171956,-0.268833 0.498916,-0.385086 3.728546,-1.311469 6.597311,3.866597 -1.203695,5.917964 0,0 0.09082,-0.08113 0.117462,-0.152582 z M 19.115066,0.43327615 c 0,0 3.234476,3.23568575 -3.068573,8.21152155 -5.054548,3.9913253 -1.152834,6.2679303 -0.0024,8.8678623 -2.949933,-2.661691 -5.115131,-5.004899 -3.66319,-7.185839 2.132502,-3.2017785 8.038355,-4.7530186 6.732939,-9.89354485 z M 13.060265,31.468976 c 5.606746,0.358445 14.216673,-0.198597 14.420115,-2.851811 0,0 -0.392351,1.006308 -4.633134,1.804331 -4.785715,0.900954 -10.687935,0.7956 -14.1876112,0.217973 0,0 0.7168889,0.59337 4.4018412,0.829507 z"
     id="path4"
     inkscape:connector-curvature="0"
     style="fill:#000000" />
</svg>
