<?xml version="1.0" encoding="UTF-8" standalone="no"?>
<!-- Generated by IcoMoon.io -->

<svg
   xmlns:dc="http://purl.org/dc/elements/1.1/"
   xmlns:cc="http://creativecommons.org/ns#"
   xmlns:rdf="http://www.w3.org/1999/02/22-rdf-syntax-ns#"
   xmlns:svg="http://www.w3.org/2000/svg"
   xmlns="http://www.w3.org/2000/svg"
   xmlns:sodipodi="http://sodipodi.sourceforge.net/DTD/sodipodi-0.dtd"
   xmlns:inkscape="http://www.inkscape.org/namespaces/inkscape"
   version="1.1"
   width="63.992188"
   height="63.992188"
   viewBox="0 0 63.992188 63.992188"
   id="svg2"
   inkscape:version="0.92.3 (2405546, 2018-03-11)"
   sodipodi:docname="javascript.svg">
  <metadata
     id="metadata10">
    <rdf:RDF>
      <cc:Work
         rdf:about="">
        <dc:format>image/svg+xml</dc:format>
        <dc:type
           rdf:resource="http://purl.org/dc/dcmitype/StillImage" />
        <dc:title></dc:title>
      </cc:Work>
    </rdf:RDF>
  </metadata>
  <defs
     id="defs8" />
  <sodipodi:namedview
     pagecolor="#ffffff"
     bordercolor="#666666"
     borderopacity="1"
     objecttolerance="10"
     gridtolerance="10"
     guidetolerance="10"
     inkscape:pageopacity="0"
     inkscape:pageshadow="2"
     inkscape:window-width="1920"
     inkscape:window-height="1026"
     id="namedview6"
     showgrid="false"
     inkscape:zoom="7.375"
     inkscape:cx="-17.272619"
     inkscape:cy="17.178635"
     inkscape:window-x="0"
     inkscape:window-y="0"
     inkscape:window-maximized="1"
     inkscape:current-layer="svg2"
     fit-margin-top="0"
     fit-margin-left="0"
     fit-margin-right="0"
     fit-margin-bottom="0" />
  <path
     style="fill:#000000;fill-opacity:1;stroke-width:2.04469943"
     d="M 0,0 V 63.992188 H 63.992188 V 0 Z m 47.75586,28.96875 c 3.619118,-0.07361 5.882672,0.87974 7.542968,2.736328 0.462103,0.468236 0.839409,0.974355 1.546875,2.070313 -1.928151,1.228865 -1.923158,1.216747 -4.685547,3.005859 -0.590918,-1.271803 -1.566944,-2.070461 -2.601562,-2.416015 -1.60509,-0.486639 -3.631617,0.04313 -4.050781,1.740234 -0.145174,0.523443 -0.115817,1.010185 0.115234,1.873047 0.650214,1.484453 2.834146,2.129628 4.792969,3.029297 5.639281,2.288019 7.543483,4.736419 8.011719,7.65625 0.449834,2.512935 -0.109527,4.143399 -0.19336,4.386719 h -0.0039 c -2.079459,7.117598 -13.681163,7.347341 -18.314453,2.644531 -0.979411,-1.106182 -1.592951,-1.683 -2.177734,-2.960938 2.463863,-1.416977 2.462986,-1.418382 4.859374,-2.804687 1.302474,2.00176 2.506538,3.1029 4.671876,3.552734 2.938231,0.357823 5.894904,-0.651272 5.232421,-3.771484 -0.680884,-2.54974 -6.015097,-3.168948 -9.646484,-5.894532 -3.686593,-2.476131 -4.549683,-8.490594 -1.521484,-11.927734 1.010082,-1.271803 2.731639,-2.221765 4.537109,-2.677734 0.625677,-0.07974 1.259087,-0.162445 1.884766,-0.242188 z m -19.283204,0.341797 h 5.984376 c 0,5.496152 0.03067,11.00812 0,16.496094 0.01227,3.36353 0.305221,6.420659 -1.058594,8.933594 v 0.002 c -0.942607,1.915883 -2.744484,3.173975 -4.830078,3.78125 -3.206089,0.736092 -6.27085,0.317213 -8.552735,-1.052735 -1.527389,-0.936472 -2.719687,-2.376812 -3.527343,-4.037109 1.623491,-0.991679 3.243696,-1.990742 4.867187,-2.982422 0.04294,0.01841 0.170042,0.250301 0.341797,0.548828 0.619543,1.040751 1.154011,1.775751 2.207031,2.291016 1.034618,0.351688 3.302513,0.579548 4.179688,-1.240234 0.535712,-0.924206 0.365234,-3.958125 0.365234,-7.248047 0,-5.171045 0.02344,-10.257758 0.02344,-15.492188 z"
     id="path4137"
     inkscape:connector-curvature="0" />
</svg>
