<?xml version="1.0" encoding="UTF-8" standalone="no"?>
<!-- Created with Inkscape (http://www.inkscape.org/) -->

<svg
   xmlns:dc="http://purl.org/dc/elements/1.1/"
   xmlns:cc="http://creativecommons.org/ns#"
   xmlns:rdf="http://www.w3.org/1999/02/22-rdf-syntax-ns#"
   xmlns:svg="http://www.w3.org/2000/svg"
   xmlns="http://www.w3.org/2000/svg"
   xmlns:sodipodi="http://sodipodi.sourceforge.net/DTD/sodipodi-0.dtd"
   xmlns:inkscape="http://www.inkscape.org/namespaces/inkscape"
   width="58.791142"
   height="130.88936"
   id="svg7473"
   version="1.1"
   inkscape:version="0.92.3 (2405546, 2018-03-11)"
   viewBox="0 0 58.791143 130.88936"
   sodipodi:docname="mongod.svg">
  <defs
     id="defs7475">
    <inkscape:path-effect
       effect="spiro"
       id="path-effect8184"
       is_visible="true" />
    <inkscape:path-effect
       effect="spiro"
       id="path-effect8159"
       is_visible="true" />
    <inkscape:path-effect
       effect="spiro"
       id="path-effect7524"
       is_visible="true" />
    <clipPath
       clipPathUnits="userSpaceOnUse"
       id="clipPath18">
      <path
         d="m 1006.58,104.609 -109.291,36.192 c 0,0 13.93,553.125 -185.551,591.844 -131.55,152.429 20.235,6510.805 498.132,21.804 0,0 -163.58,-82.144 -194.53,-221.609 -30.953,-139.551 -8.76,-428.231 -8.76,-428.231 z"
         id="path20"
         inkscape:connector-curvature="0" />
    </clipPath>
    <linearGradient
       x1="0"
       y1="0"
       x2="1"
       y2="0"
       gradientUnits="userSpaceOnUse"
       gradientTransform="matrix(1256.2567,-423.84291,-382.33557,-1127.3918,283.65375,2101.0885)"
       spreadMethod="pad"
       id="linearGradient22">
      <stop
         style="stop-opacity:1;stop-color:#929669"
         offset="0"
         id="stop24" />
      <stop
         style="stop-opacity:1;stop-color:#929669"
         offset="0.230769"
         id="stop26" />
      <stop
         style="stop-opacity:1;stop-color:#929669"
         offset="0.84545184"
         id="stop28" />
      <stop
         style="stop-opacity:1;stop-color:#fcfbf0"
         offset="1"
         id="stop30" />
    </linearGradient>
    <clipPath
       clipPathUnits="userSpaceOnUse"
       id="clipPath38">
      <path
         d="m 1065.49,638.75 c 0,0 949.66,625.47 727.17,1924.45 -214.26,943.73 -720.11,1253.96 -774.48,1372.41 -59.832,83.82 -120.106,232.37 -120.106,232.37 L 938.465,1538.5 c 0,0 -83.563,-802.898 127.025,-899.75 z"
         id="path40"
         inkscape:connector-curvature="0" />
    </clipPath>
    <linearGradient
       x1="0"
       y1="0"
       x2="1"
       y2="0"
       gradientUnits="userSpaceOnUse"
       gradientTransform="matrix(879.70902,-3415.0356,-3674.4423,-589.11534,743.88687,4143.2629)"
       spreadMethod="pad"
       id="linearGradient42">
      <stop
         style="stop-opacity:1;stop-color:#45aa3a"
         offset="0"
         id="stop44" />
      <stop
         style="stop-opacity:1;stop-color:#3c9439"
         offset="1"
         id="stop46" />
    </linearGradient>
    <clipPath
       clipPathUnits="userSpaceOnUse"
       id="clipPath54">
      <path
         d="M 0,0 V 4179 H 14669 V 0 Z"
         id="path56"
         inkscape:connector-curvature="0" />
    </clipPath>
    <clipPath
       clipPathUnits="userSpaceOnUse"
       id="clipPath60">
      <path
         d="m 841.688,603.805 c 0,0 -890.8169,607.695 -839.55909,1679.925 C 53.3906,3355.98 682.566,3883.18 805.105,3978.82 c 79.219,84.48 82.497,117.02 88.625,200.32 C 949.258,4059.88 940.035,2397.5 945.914,2203.21 968.75,1446.85 904.027,746.574 841.688,603.805 Z"
         id="path62"
         inkscape:connector-curvature="0" />
    </clipPath>
    <linearGradient
       x1="0"
       y1="0"
       x2="1"
       y2="0"
       gradientUnits="userSpaceOnUse"
       gradientTransform="matrix(1539.6853,349.83117,481.12314,-1437.5996,-91.497896,2173.5321)"
       spreadMethod="pad"
       id="linearGradient64">
      <stop
         style="stop-opacity:1;stop-color:#40a73b"
         offset="0"
         id="stop66" />
      <stop
         style="stop-opacity:1;stop-color:#40a73b"
         offset="0.2336695"
         id="stop68" />
      <stop
         style="stop-opacity:1;stop-color:#5ebc45"
         offset="1"
         id="stop70" />
    </linearGradient>
    <clipPath
       clipPathUnits="userSpaceOnUse"
       id="clipPath78">
      <path
         d="M 0,0 H 14668.5 V 4179 H 0 Z"
         id="path80"
         inkscape:connector-curvature="0" />
    </clipPath>
  </defs>
  <sodipodi:namedview
     id="base"
     pagecolor="#ffffff"
     bordercolor="#666666"
     borderopacity="1.0"
     inkscape:pageopacity="0.0"
     inkscape:pageshadow="2"
     inkscape:zoom="5.6568543"
     inkscape:cx="-9.4134982"
     inkscape:cy="68.484745"
     inkscape:current-layer="layer1"
     showgrid="true"
     inkscape:grid-bbox="true"
     inkscape:document-units="px"
     inkscape:window-width="1920"
     inkscape:window-height="1026"
     inkscape:window-x="0"
     inkscape:window-y="0"
     inkscape:window-maximized="1"
     fit-margin-top="0"
     fit-margin-left="0"
     fit-margin-right="0"
     fit-margin-bottom="0" />
  <metadata
     id="metadata7478">
    <rdf:RDF>
      <cc:Work
         rdf:about="">
        <dc:format>image/svg+xml</dc:format>
        <dc:type
           rdf:resource="http://purl.org/dc/dcmitype/StillImage" />
        <dc:title></dc:title>
      </cc:Work>
    </rdf:RDF>
  </metadata>
  <g
     id="layer1"
     inkscape:label="Layer 1"
     inkscape:groupmode="layer"
     transform="translate(13.395114,49.546732)">
    <g
       id="g4281"
       transform="matrix(1.0532992,0,0,1.0532992,-51.412746,-51.093876)"
       style="fill:#000000">
      <path
         style="clip-rule:evenodd;fill:#000000;fill-rule:evenodd;stroke:#f4ffff;stroke-width:0.25666225;stroke-opacity:1"
         d="m 15.878906,0.34765625 c -0.02207,0.0769987 -0.03634,0.10339651 -0.03711,0.13085937 -0.0172,0.66270198 -0.393946,1.11186388 -0.861328,1.53124998 -0.525645,0.4720019 -1.014164,0.9856239 -1.519531,1.4804688 0.04902,0.065449 0.119121,0.1236035 0.144531,0.1972656 0.431449,1.2632916 2.07351,4.8699149 2.498543,6.1352599 C 15.678979,8.5574149 14.034965,4.950535 13.603516,3.6875 13.578106,3.6138379 13.50996,3.5556833 13.460938,3.4902344 L 11.90625,5.5351562 10.650391,7.8457031 c -0.280019,0.756127 -0.560082,1.5111945 -0.8398441,2.2675779 0.045172,0.0598 0.1099695,0.114139 0.1328125,0.181641 0.4514686,1.32951 4.5961546,7.63134 6.1943206,10.251709 -1.605979,-2.628182 -5.744805,-8.922199 -6.1962738,-10.251709 -0.022843,-0.0675 -0.085943,-0.121838 -0.1308593,-0.181641 l -0.025391,0.03516 c -0.4625053,1.518927 -0.6905729,3.08127 -0.8027343,4.658203 -0.042093,0.592889 0.0057,1.195045 0.039063,1.791015 0.047482,0.851606 0.1959559,1.68953 0.4179687,2.513672 0.8059197,2.994479 2.4423627,5.477614 4.6796877,7.587891 0.415125,0.39155 1.289544,0.934361 1.296875,1.11914 v 0 l 0.193359,0.660204 0.177734,1.023437 c 0.02849,0.355991 0.05796,0.710416 0.08594,1.066406 -7.7e-4,0.21688 -0.01114,0.434538 0.002,0.650391 0.0033,0.05544 0.07663,0.107027 0.117188,0.160156 l 0.361328,0.126953 0.376953,0.146485 -0.06445,-0.947266 -0.002,-0.935547 0.13086,-1.421875 0.03516,-0.314453 c 0.01219,-0.248643 0.177464,-0.325742 0.328128,-0.474606 v 0 c 0.333661,-0.268726 0.693902,-0.513489 0.998047,-0.8125 0.550284,-0.540788 1.099262,-1.087311 1.591797,-1.679688 0.639089,-0.76819 1.187447,-1.606771 1.628906,-2.505859 0.295418,-0.60136 0.574718,-1.215184 0.804688,-1.84375 0.202291,-0.553546 0.328878,-1.135867 0.488281,-1.705078 v -0.002 c 0.01405,-0.04045 0.03216,-0.0813 0.04102,-0.123047 0.329811,-1.53869 0.386769,-3.091894 0.265624,-4.65625 C 22.879031,12.969487 22.581865,11.754183 22.169922,10.5625 21.315493,7.9021957 19.944542,5.5470629 18.013672,3.5214844 17.525244,3.0089298 16.983169,2.5379397 16.642578,1.9003906 16.426982,1.4971742 16.221412,1.087937 16.011719,0.68164062 Z m 0.132813,0.33398437 0.09229,9.14111928 c 0.01437,2.0748571 0.01318,14.9712791 0.02781,17.0461371 -0.01437,-2.074858 0.04235,-11.223484 0.02747,-13.297828 l 5.74716,-3.9885395 -5.74716,3.9885395 z M 16.128907,23.701172 c 2.037081,-3.299391 5.00511,-8.033831 6.690718,-10.816006 z"
         transform="matrix(3.8961708,0,0,3.8961708,1.6614467,1.6607674)"
         id="path4243"
         inkscape:connector-curvature="0"
         sodipodi:nodetypes="cccccccccccccccccccccccccccccccccccccccccccccccccccccccccc" />
      <path
         id="path4273"
         d="m 64.316,95.172 -0.066,-0.011 -0.066,0.01 0.155,-0.559 z"
         inkscape:connector-curvature="0"
         style="clip-rule:evenodd;fill:#000000;fill-rule:evenodd" />
    </g>
  </g>
</svg>
