<?xml version="1.0" encoding="UTF-8" standalone="no"?>
<!-- Created with Inkscape (http://www.inkscape.org/) -->

<svg
   xmlns:osb="http://www.openswatchbook.org/uri/2009/osb"
   xmlns:dc="http://purl.org/dc/elements/1.1/"
   xmlns:cc="http://creativecommons.org/ns#"
   xmlns:rdf="http://www.w3.org/1999/02/22-rdf-syntax-ns#"
   xmlns:svg="http://www.w3.org/2000/svg"
   xmlns="http://www.w3.org/2000/svg"
   xmlns:xlink="http://www.w3.org/1999/xlink"
   xmlns:sodipodi="http://sodipodi.sourceforge.net/DTD/sodipodi-0.dtd"
   xmlns:inkscape="http://www.inkscape.org/namespaces/inkscape"
   width="32"
   height="32"
   id="svg7473"
   version="1.1"
   inkscape:version="0.91 r13725"
   viewBox="0 0 32 32"
   sodipodi:docname="mongodb.svg">
  <defs
     id="defs7475">
    <linearGradient
       id="linearGradient5729"
       osb:paint="solid">
      <stop
         style="stop-color:#000000;stop-opacity:1;"
         offset="0"
         id="stop5731" />
    </linearGradient>
    <linearGradient
       id="linearGradient5619"
       osb:paint="solid">
      <stop
         style="stop-color:#000000;stop-opacity:1;"
         offset="0"
         id="stop5621" />
    </linearGradient>
    <inkscape:path-effect
       effect="spiro"
       id="path-effect8184"
       is_visible="true" />
    <inkscape:path-effect
       effect="spiro"
       id="path-effect8159"
       is_visible="true" />
    <inkscape:path-effect
       effect="spiro"
       id="path-effect7524"
       is_visible="true" />
    <clipPath
       clipPathUnits="userSpaceOnUse"
       id="clipPath18">
      <path
         d="m 1006.58,104.609 -109.291,36.192 c 0,0 13.93,553.125 -185.551,591.844 -131.55,152.429 20.235,6510.805 498.132,21.804 0,0 -163.58,-82.144 -194.53,-221.609 -30.953,-139.551 -8.76,-428.231 -8.76,-428.231 z"
         id="path20" />
    </clipPath>
    <linearGradient
       x1="0"
       y1="0"
       x2="1"
       y2="0"
       gradientUnits="userSpaceOnUse"
       gradientTransform="matrix(1256.2567,-423.84291,-382.33557,-1127.3918,283.65375,2101.0885)"
       spreadMethod="pad"
       id="linearGradient22">
      <stop
         style="stop-opacity:1;stop-color:#929669"
         offset="0"
         id="stop24" />
      <stop
         style="stop-opacity:1;stop-color:#929669"
         offset="0.230769"
         id="stop26" />
      <stop
         style="stop-opacity:1;stop-color:#929669"
         offset="0.84545184"
         id="stop28" />
      <stop
         style="stop-opacity:1;stop-color:#fcfbf0"
         offset="1"
         id="stop30" />
    </linearGradient>
    <clipPath
       clipPathUnits="userSpaceOnUse"
       id="clipPath38">
      <path
         d="m 1065.49,638.75 c 0,0 949.66,625.47 727.17,1924.45 -214.26,943.73 -720.11,1253.96 -774.48,1372.41 -59.832,83.82 -120.106,232.37 -120.106,232.37 L 938.465,1538.5 c 0,0 -83.563,-802.898 127.025,-899.75 z"
         id="path40" />
    </clipPath>
    <linearGradient
       x1="0"
       y1="0"
       x2="1"
       y2="0"
       gradientUnits="userSpaceOnUse"
       gradientTransform="matrix(879.70902,-3415.0356,-3674.4423,-589.11534,743.88687,4143.2629)"
       spreadMethod="pad"
       id="linearGradient42">
      <stop
         style="stop-opacity:1;stop-color:#45aa3a"
         offset="0"
         id="stop44" />
      <stop
         style="stop-opacity:1;stop-color:#3c9439"
         offset="1"
         id="stop46" />
    </linearGradient>
    <clipPath
       clipPathUnits="userSpaceOnUse"
       id="clipPath54">
      <path
         d="m 0,0 0,4179 14669,0 L 14669,0 0,0 Z"
         id="path56" />
    </clipPath>
    <clipPath
       clipPathUnits="userSpaceOnUse"
       id="clipPath60">
      <path
         d="m 841.688,603.805 c 0,0 -890.8169,607.695 -839.55909,1679.925 C 53.3906,3355.98 682.566,3883.18 805.105,3978.82 c 79.219,84.48 82.497,117.02 88.625,200.32 C 949.258,4059.88 940.035,2397.5 945.914,2203.21 968.75,1446.85 904.027,746.574 841.688,603.805 Z"
         id="path62" />
    </clipPath>
    <linearGradient
       x1="0"
       y1="0"
       x2="1"
       y2="0"
       gradientUnits="userSpaceOnUse"
       gradientTransform="matrix(1539.6853,349.83117,481.12314,-1437.5996,-91.497896,2173.5321)"
       spreadMethod="pad"
       id="linearGradient64">
      <stop
         style="stop-opacity:1;stop-color:#40a73b"
         offset="0"
         id="stop66" />
      <stop
         style="stop-opacity:1;stop-color:#40a73b"
         offset="0.2336695"
         id="stop68" />
      <stop
         style="stop-opacity:1;stop-color:#5ebc45"
         offset="1"
         id="stop70" />
    </linearGradient>
    <clipPath
       clipPathUnits="userSpaceOnUse"
       id="clipPath78">
      <path
         d="m 0,0 14668.5,0 0,4179 L 0,4179 0,0 Z"
         id="path80" />
    </clipPath>
    <linearGradient
       inkscape:collect="always"
       xlink:href="#linearGradient5619"
       id="linearGradient5623"
       x1="35.61735"
       y1="63.22483"
       x2="92.38233"
       y2="63.22483"
       gradientUnits="userSpaceOnUse" />
  </defs>
  <sodipodi:namedview
     id="base"
     pagecolor="#ffffff"
     bordercolor="#666666"
     borderopacity="1.0"
     inkscape:pageopacity="0.0"
     inkscape:pageshadow="2"
     inkscape:zoom="11.313708"
     inkscape:cx="22.836253"
     inkscape:cy="19.331561"
     inkscape:current-layer="g4180"
     showgrid="true"
     inkscape:grid-bbox="true"
     inkscape:document-units="px"
     inkscape:window-width="1920"
     inkscape:window-height="1027"
     inkscape:window-x="0"
     inkscape:window-y="0"
     inkscape:window-maximized="1" />
  <metadata
     id="metadata7478">
    <rdf:RDF>
      <cc:Work
         rdf:about="">
        <dc:format>image/svg+xml</dc:format>
        <dc:type
           rdf:resource="http://purl.org/dc/dcmitype/StillImage" />
        <dc:title />
      </cc:Work>
    </rdf:RDF>
  </metadata>
  <g
     id="layer1"
     inkscape:label="Layer 1"
     inkscape:groupmode="layer">
    <g
       id="g4281"
       transform="matrix(0.25666226,0,0,0.25666226,-0.42643067,-0.42625631)"
       style="fill:url(#linearGradient5623);stroke:#000000;stroke-opacity:0;stroke-width:1.94808539;stroke-miterlimit:4;stroke-dasharray:none;fill-opacity:1">
      <g
         id="g4180">
        <g
           id="g4199"
           transform="matrix(0.48429098,0,0,-0.48429098,-666.59694,789.73136)"
           style="fill:#000000;stroke:none">
          <path
             id="path4201"
             d="m 1481.6477,1624.4744 c -25.4622,-2.5652 -54.6298,-9.6909 -65.0807,-15.7714 -5.3205,-3.1353 -13.3012,-11.306 -15.7714,-16.2464 -3.2303,-6.1756 -4.8454,-13.2062 -6.5556,-27.7425 -7.6957,-66.0308 15.2964,-122.9408 65.8408,-163.1293 13.4912,-10.641 29.0726,-20.3318 42.9438,-26.4123 l 6.1755,-2.7553 10.831,5.7005 c 43.9888,22.992 76.1017,56.435 91.588,95.0084 13.5862,33.7279 16.4365,72.8714 8.0757,109.6396 -2.2802,10.3559 -4.6554,14.6313 -11.401,21.0919 -6.8406,6.4605 -10.1659,7.9807 -26.9823,12.6361 -25.5573,7.0306 -32.1129,7.7907 -65.9358,8.0757 -16.4365,0.19 -31.6378,0.095 -33.728,-0.095 z m 53.7747,-18.4316 c 22.232,-2.1852 41.2337,-7.1257 55.1999,-14.4413 8.7408,-4.4654 8.5507,-4.1804 11.971,-20.2368 2.0902,-9.8809 2.4703,-13.7762 2.4703,-29.4526 0.095,-16.2464 -0.1901,-19.2867 -2.5653,-30.4027 -10.0709,-47.2191 -32.8729,-80.8521 -71.9213,-106.5043 -4.9404,-3.2303 -11.876,-7.3157 -15.3913,-9.0258 l -6.3656,-3.1353 -5.9855,3.2303 c -16.5315,8.7408 -36.1032,23.7521 -49.2144,37.8133 -20.4268,21.8519 -32.6828,44.939 -38.6684,72.4914 -2.7552,12.6361 -2.3752,48.4543 0.5701,64.8907 1.1401,6.7456 2.5652,13.2062 2.9452,14.4413 0.5701,1.4251 3.4203,3.5153 8.2658,5.8905 13.2061,6.6506 29.9276,11.496 47.7892,13.9662 11.0209,1.5201 47.5042,1.8052 60.9003,0.4751 z"
             inkscape:connector-curvature="0" />
          <path
             id="path4203"
             d="m 1500.9344,1584.9509 c -19.4767,-20.4268 -33.2529,-53.9647 -33.1579,-81.0421 0.095,-22.232 6.0805,-35.8182 27.6474,-62.2305 8.3608,-10.2609 12.3511,-17.6716 12.3511,-23.087 0,-5.3205 1.4251,-9.2158 3.3253,-9.2158 1.1401,0 1.4251,1.5201 1.4251,8.3607 0,12.5411 0.8551,14.6313 10.3559,24.4171 10.4509,10.736 13.3962,14.6313 17.4816,22.8971 5.8905,11.686 9.2158,27.1723 9.2158,42.7537 0,14.7263 -5.4155,32.0178 -14.7263,46.5541 -5.8905,9.3108 -26.2223,36.4832 -27.2674,36.4832 -0.4751,0 -3.5153,-2.6602 -6.6506,-5.8905 z"
             inkscape:connector-curvature="0" />
        </g>
      </g>
    </g>
  </g>
</svg>
