<?xml version="1.0" encoding="UTF-8" standalone="no"?>
<!-- Generated by IcoMoon.io -->

<svg
   xmlns:dc="http://purl.org/dc/elements/1.1/"
   xmlns:cc="http://creativecommons.org/ns#"
   xmlns:rdf="http://www.w3.org/1999/02/22-rdf-syntax-ns#"
   xmlns:svg="http://www.w3.org/2000/svg"
   xmlns="http://www.w3.org/2000/svg"
   xmlns:sodipodi="http://sodipodi.sourceforge.net/DTD/sodipodi-0.dtd"
   xmlns:inkscape="http://www.inkscape.org/namespaces/inkscape"
   version="1.1"
   width="32"
   height="32"
   viewBox="0 0 32 32"
   id="svg32"
   inkscape:version="0.91 r13725"
   sodipodi:docname="prolog.svg">
  <metadata
     id="metadata40">
    <rdf:RDF>
      <cc:Work
         rdf:about="">
        <dc:format>image/svg+xml</dc:format>
        <dc:type
           rdf:resource="http://purl.org/dc/dcmitype/StillImage" />
      </cc:Work>
    </rdf:RDF>
  </metadata>
  <defs
     id="defs38" />
  <sodipodi:namedview
     pagecolor="#ffffff"
     bordercolor="#666666"
     borderopacity="1"
     objecttolerance="10"
     gridtolerance="10"
     guidetolerance="10"
     inkscape:pageopacity="0"
     inkscape:pageshadow="2"
     inkscape:window-width="640"
     inkscape:window-height="480"
     id="namedview36"
     showgrid="false"
     inkscape:zoom="7.375"
     inkscape:cx="16"
     inkscape:cy="16"
     inkscape:window-x="0"
     inkscape:window-y="0"
     inkscape:window-maximized="0"
     inkscape:current-layer="svg32" />
  <path
     d="m 10.714872,11.173514 c 0,0.260588 -0.21142,0.470778 -0.470777,0.470778 -0.2593579,0 -0.4707776,-0.21142 -0.4707776,-0.470778 0,-0.260586 0.2114197,-0.470777 0.4707776,-0.470777 0.259357,0 0.470777,0.211419 0.470777,0.470777 z m 0.221253,-2.2444892 c -1.5303331,0 -2.7718093,1.2402462 -2.7718093,2.7718102 0,1.531563 1.2414762,2.771809 2.7718093,2.771809 1.530334,0 2.77181,-1.240246 2.77181,-2.771809 0,-1.531564 -1.241476,-2.7718102 -2.77181,-2.7718102 z m 0.06884,4.5172502 c -0.925575,0 -1.6766063,-0.75103 -1.6766063,-1.676606 0,-0.925576 0.7510313,-1.676607 1.6766063,-1.676607 0.925576,0 1.676607,0.751031 1.676607,1.676607 0,0.925576 -0.751031,1.676606 -1.676607,1.676606 z m 11.931688,-1.800753 c 0.260586,0 0.470777,-0.210191 0.470777,-0.470778 0,-0.260588 -0.211419,-0.470778 -0.470777,-0.470778 -0.260587,0 -0.470778,0.21142 -0.470778,0.470778 0,0.259358 0.21142,0.470778 0.470778,0.470778 z m 0.859199,2.937749 c 1.530335,0 2.77181,-1.241476 2.77181,-2.77181 0,-1.530334 -1.240247,-2.7718096 -2.77181,-2.7718096 -1.530333,0 -2.77181,1.2402466 -2.77181,2.7718096 0,1.531563 1.241477,2.77181 2.77181,2.77181 z m -0.0971,-4.461938 c 0.925576,0 1.676607,0.751032 1.676607,1.676607 0,0.925575 -0.751031,1.676607 -1.676607,1.676607 -0.925575,0 -1.676606,-0.751032 -1.676606,-1.676607 0,-0.925575 0.751031,-1.676607 1.676606,-1.676607 z m 6.408965,5.330971 c 0,-3.800637 -1.524189,-7.2435809 -3.99116,-9.7560327 C 25.65806,4.29746 25.710915,2.3639538 26.292319,1.4838581 26.495135,1.1765623 26.711471,0.87909972 26.943787,0.5447617 24.879987,0.19321512 23.124713,0.78445256 21.948383,2.2570148 21.805798,2.4364756 21.673046,2.5421855 21.534149,2.5938112 19.885813,1.9066975 18.077684,1.5256504 16.181052,1.5256504 c -1.904005,0 -3.71828,0.3835054 -5.371532,1.075536 C 10.663247,2.552019 10.524348,2.4450799 10.374388,2.2570148 9.1992885,0.78568175 7.4440139,0.19321512 5.378985,0.5447617 5.6113007,0.87909972 5.8276371,1.1765623 6.0304525,1.4838581 6.6204607,2.3774749 6.6659405,4.3552317 6.1865588,5.7577304 3.754004,8.2652655 2.2543996,11.682397 2.2543996,15.452304 c 0,1.773712 0.3331089,3.469986 0.9378674,5.029819 0.1511895,0.427757 0.2900873,0.860429 0.4314435,1.291873 0.1290643,0.394568 0.2532119,0.785449 0.3675259,1.177558 0.3367964,1.155434 0.5432993,2.34897 0.5764873,3.552342 0.00983,0.329421 0.00369,0.658842 -0.00492,0.987034 -0.00369,0.113085 -0.00738,0.22617 -0.011062,0.339255 l 2.8209769,-2.581286 c 0.5113405,0.472007 1.2070583,0.897304 2.0453615,1.259913 -0.8493656,0.593696 -1.4061859,1.578272 -1.4061859,2.693143 0,0.951388 0.4068594,1.80567 1.0534106,2.405512 -0.062686,-0.208961 -0.097101,-0.430215 -0.097101,-0.660071 0,-1.263601 1.0239094,-2.286283 2.2862817,-2.286283 1.262371,0 2.286282,1.02391 2.286282,2.286283 0,0.27042 -0.04916,0.528548 -0.13521,0.769468 0.717843,-0.602299 1.1751,-1.50575 1.1751,-2.516139 0,-0.553133 -0.137669,-1.073077 -0.378589,-1.530333 0.754719,0.07866 1.540167,0.120459 2.34897,0.120459 0.550675,0 1.090287,-0.01966 1.617606,-0.05654 -0.221253,0.441277 -0.345401,0.939096 -0.345401,1.466416 0,0.951388 0.406861,1.805671 1.053411,2.405513 -0.06269,-0.208962 -0.0971,-0.430214 -0.0971,-0.660072 0,-1.263601 1.023911,-2.286282 2.286282,-2.286282 1.262372,0 2.286281,1.023911 2.286281,2.286282 0,0.27042 -0.04916,0.528549 -0.135209,0.769469 0.717842,-0.6023 1.1751,-1.50575 1.1751,-2.51614 0,-1.005472 -0.45234,-1.905234 -1.165266,-2.507534 0.867803,-0.33188 1.606542,-0.727677 2.176884,-1.170183 l 2.438701,2.230969 c -0.0049,-0.113085 -0.0086,-0.22617 -0.01106,-0.339255 -0.0086,-0.328193 -0.01475,-0.657614 -0.0049,-0.987035 0.03441,-1.203371 0.240921,-2.396908 0.576488,-3.552342 0.114314,-0.392109 0.238461,-0.784219 0.367526,-1.178786 0.148731,-0.45357 0.293775,-0.910826 0.454798,-1.360707 l -0.0012,0 c 0.570341,-1.520501 0.885013,-3.166377 0.885013,-4.886006 z M 3.8732446,19.605716 3.3508416,18.042194 4.0441012,18.68014 5.119637,18.300323 3.8732446,19.605716 Z M 4.1411969,20.724273 4.8344565,21.36222 5.9099924,20.982402 4.6636,22.287795 4.1411969,20.724273 Z M 5.8448457,18.396199 6.488938,19.084542 7.5890575,18.78585 6.248018,19.994137 5.8448457,18.396199 Z M 5.3285885,25.010437 4.8061853,23.446916 5.499445,24.084862 6.5749809,23.705044 5.3285885,25.010437 Z M 7.0543626,22.786844 6.5319595,21.223322 7.2252192,21.861269 8.300755,21.48145 7.0543626,22.786844 Z m 1.1812457,-3.912493 0.6440919,0.688344 1.1001205,-0.298692 -1.3410405,1.208288 -0.4031719,-1.59794 z m 7.9872367,2.287512 c -0.276567,-0.411777 -0.507653,-0.875179 -0.722761,-1.293101 -0.247065,-0.478154 -0.49536,-0.956306 -0.744884,-1.433229 -0.476924,-0.912055 -1.184934,-1.840089 -1.422166,-2.870144 -0.94893,0.771927 -2.158447,1.2341 -3.4773616,1.2341 -3.0459173,0 -5.5153477,-2.46943 -5.5153477,-5.515348 0,-3.0459176 2.4694304,-5.5153479 5.5153477,-5.5153479 0.8100326,0 1.5782726,0.1757733 2.2715326,0.4892151 0.313441,0.1327519 0.613362,0.2937751 0.897304,0.4806109 1.43077,0.9907222 2.367408,2.6427454 2.367408,4.5135639 0,0.26919 -0.02089,0.532236 -0.059,0.790365 0.281482,-0.08851 0.580175,-0.13644 0.889928,-0.13644 0.357693,0 0.699406,0.06638 1.017764,0.183148 -0.04794,-0.291316 -0.07498,-0.588779 -0.07498,-0.892387 0,-0.476923 0.06392,-0.939096 0.178232,-1.3803734 0.0061,-0.022126 0.01229,-0.043022 0.01844,-0.065147 0.03074,-0.1106265 0.06392,-0.221253 0.100791,-0.3294213 0.02582,-0.076209 0.05285,-0.1511895 0.08113,-0.2249406 0.0123,-0.03073 0.02336,-0.061459 0.03564,-0.090959 0.821095,-2.0146324 2.798852,-3.4343397 5.10726,-3.4343397 3.045917,0 5.515348,2.4694303 5.515348,5.5153478 0,3.045918 -2.469431,5.515348 -5.515348,5.515348 -1.1456,0 -2.210073,-0.349088 -3.091398,-0.947701 -0.158564,-0.106944 -0.310983,-0.223711 -0.457256,-0.3454 -0.115543,0.549445 -0.394568,1.016534 -0.672364,1.538938 -0.378589,0.714155 -0.753489,1.43077 -1.127162,2.147385 l -1.116099,2.065028 z m 10.365707,-2.578828 -0.403172,1.597939 -1.341039,-1.208288 1.100119,0.297463 0.644092,-0.688344 z m -4.134973,0.867803 1.100119,0.298693 0.644092,-0.688344 -0.403172,1.59794 -1.341039,-1.208289 z m 2.926685,3.522842 -1.246391,-1.305393 1.075535,0.379817 0.69326,-0.637947 -0.522404,1.563523 z m 1.724546,2.223593 -1.246392,-1.305393 1.075535,0.379817 0.69326,-0.637945 -0.522403,1.563521 z m 0.664988,-2.722643 -1.246392,-1.305393 1.075535,0.379819 0.69326,-0.637947 -0.522403,1.563521 z m 0.790365,-2.680849 -1.246392,-1.305393 1.075536,0.379817 0.69326,-0.637945 -0.522404,1.563521 z M 16.21547,12.458011 c -1.427082,0 -2.583744,1.156662 -2.583744,2.584974 0,1.139454 0.803885,2.12526 1.307851,3.090168 0.216336,0.415465 0.432672,0.830929 0.64778,1.246393 0.186836,0.362609 0.388423,0.765782 0.629343,1.123474 l 0.969825,-1.795838 c 0.325734,-0.623195 0.650239,-1.246392 0.97966,-1.86713 0.314671,-0.592467 0.634259,-1.102577 0.634259,-1.798295 0,-1.427084 -1.156662,-2.584974 -2.584974,-2.584974 z"
     id="path34"
     inkscape:connector-curvature="0"
     style="fill:#000000" />
</svg>
