<?xml version="1.0" encoding="UTF-8" standalone="no"?>
<!-- Created with Inkscape (http://www.inkscape.org/) -->

<svg
   xmlns:dc="http://purl.org/dc/elements/1.1/"
   xmlns:cc="http://creativecommons.org/ns#"
   xmlns:rdf="http://www.w3.org/1999/02/22-rdf-syntax-ns#"
   xmlns:svg="http://www.w3.org/2000/svg"
   xmlns="http://www.w3.org/2000/svg"
   xmlns:sodipodi="http://sodipodi.sourceforge.net/DTD/sodipodi-0.dtd"
   xmlns:inkscape="http://www.inkscape.org/namespaces/inkscape"
   width="64"
   height="64"
   id="svg4187"
   version="1.1"
   inkscape:version="0.92.3 (2405546, 2018-03-11)"
   viewBox="0 0 64 64"
   sodipodi:docname="prolog.svg">
  <defs
     id="defs4189">
    <inkscape:path-effect
       effect="spiro"
       id="path-effect4365-7"
       is_visible="true" />
    <inkscape:path-effect
       effect="spiro"
       id="path-effect4365"
       is_visible="true" />
    <inkscape:path-effect
       effect="spiro"
       id="path-effect4223-3-6-9-0-3"
       is_visible="true" />
    <inkscape:path-effect
       effect="spiro"
       id="path-effect4223-3-6-9-2-6"
       is_visible="true" />
    <inkscape:path-effect
       effect="spiro"
       id="path-effect4223-3-6-9-06"
       is_visible="true" />
    <inkscape:path-effect
       effect="spiro"
       id="path-effect4223-3-6-2"
       is_visible="true" />
    <inkscape:path-effect
       effect="spiro"
       id="path-effect4223-3-61"
       is_visible="true" />
    <inkscape:path-effect
       effect="spiro"
       id="path-effect4223-8"
       is_visible="true" />
    <inkscape:path-effect
       effect="spiro"
       id="path-effect4223-3-6-9-0"
       is_visible="true" />
    <inkscape:path-effect
       effect="spiro"
       id="path-effect4223-3-6-9-2"
       is_visible="true" />
    <inkscape:path-effect
       effect="spiro"
       id="path-effect4223-3-6-9"
       is_visible="true" />
    <inkscape:path-effect
       effect="spiro"
       id="path-effect4223-3-6"
       is_visible="true" />
    <inkscape:path-effect
       effect="spiro"
       id="path-effect4223-3"
       is_visible="true" />
    <inkscape:path-effect
       effect="spiro"
       id="path-effect4223"
       is_visible="true" />
    <inkscape:path-effect
       effect="spiro"
       id="path-effect4219"
       is_visible="true" />
    <inkscape:path-effect
       effect="spiro"
       id="path-effect4219-3"
       is_visible="true" />
    <inkscape:path-effect
       effect="spiro"
       id="path-effect4219-36"
       is_visible="true" />
  </defs>
  <sodipodi:namedview
     id="base"
     pagecolor="#ffffff"
     bordercolor="#666666"
     borderopacity="1.0"
     inkscape:pageopacity="0.0"
     inkscape:pageshadow="2"
     inkscape:zoom="7.9180417"
     inkscape:cx="24.215092"
     inkscape:cy="39.722598"
     inkscape:current-layer="layer1"
     showgrid="true"
     inkscape:grid-bbox="true"
     inkscape:document-units="px"
     inkscape:window-width="1920"
     inkscape:window-height="1026"
     inkscape:window-x="0"
     inkscape:window-y="0"
     inkscape:window-maximized="1" />
  <metadata
     id="metadata4192">
    <rdf:RDF>
      <cc:Work
         rdf:about="">
        <dc:format>image/svg+xml</dc:format>
        <dc:type
           rdf:resource="http://purl.org/dc/dcmitype/StillImage" />
        <dc:title />
      </cc:Work>
    </rdf:RDF>
  </metadata>
  <g
     id="layer1"
     inkscape:label="Layer 1"
     inkscape:groupmode="layer"
     transform="translate(0,32)">
    <g
       id="g841"
       transform="translate(0,-16.505176)">
      <g
         transform="matrix(2.1115858,0,0,2.1115858,-4.959204,-33.346503)"
         id="g4864">
        <path
           style="fill:#000000;fill-rule:evenodd;stroke:#e31a21;stroke-width:0;stroke-linecap:butt;stroke-linejoin:miter;stroke-miterlimit:4;stroke-dasharray:none;stroke-opacity:1"
           d="M 51.236328,0.02539063 C 50.240943,0.11026128 49.253019,0.37827275 48.328125,0.75585938 47.385551,1.1406642 46.488876,1.6634727 45.693359,2.2988281 c -1.038034,0.8290496 -2.726562,2.90625 -2.726562,2.90625 0,0 -4.153503,-1.7852406 -6.359375,-2.1816406 -2.355673,-0.4233191 -4.792128,-0.3488476 -7.179688,-0.1816406 -1.470206,0.102963 -2.940807,0.3268382 -4.359375,0.7265625 -1.477833,0.416425 -4.273437,1.7285156 -4.273437,1.7285156 0,0 -1.001529,-1.7623992 -1.722656,-2.4550781 C 18.266461,2.0677858 17.277142,1.4761193 16.253906,1.0273438 15.48027,0.68803879 14.63489,0.52246681 13.800781,0.38867188 12.871821,0.23965396 11.925061,0.19045741 10.984375,0.20703125 10.375711,0.21775665 9.1660156,0.38867188 9.1660156,0.38867188 c 0,0 0.642583,0.63984592 0.9101564,1.00195312 0.5649,0.7644667 1.048053,1.5942583 1.451172,2.4550781 0.422506,0.9022107 0.892624,1.8264026 1.003906,2.8164063 0.115819,1.0303567 -0.130743,2.0783663 -0.367188,3.0878906 -0.205348,0.876758 -0.465172,1.757054 -0.908203,2.541016 -0.423558,0.749504 -1.11851,1.309595 -1.6328121,2 C 8.8803532,15.28802 8.1694781,16.31396 7.53125,17.380859 6.8288274,18.555066 6.1390029,19.74641 5.6230469,21.013672 c -0.6793115,1.668491 -1.1291877,3.426372 -1.5429688,5.179687 -0.4025768,1.705839 -0.7964922,3.430803 -0.9121093,5.179688 -0.095985,1.451846 0.01954,2.913416 0.1816406,4.359375 0.1681118,1.499473 0.4606081,2.989713 0.8203125,4.455078 0.4156441,1.693249 1.0435628,3.327582 1.5429687,4.998047 0.406343,1.359185 0.8094493,2.719485 1.1835938,4.087891 0.2557337,0.935314 0.5314517,1.866595 0.7265625,2.816406 0.1603116,0.780423 0.2630362,1.5729 0.3632812,2.363281 0.076598,0.60392 0.1513518,1.206466 0.1816407,1.814453 0.030151,0.604974 0,1.81836 0,1.81836 l 0.90625,-0.72461 4.1816402,-4.544922 c 0,0 2.513279,1.484391 4.087891,2 0.117858,0.02479 0.245202,0.05293 0.363281,0.07813 -0.150885,0.156595 -0.315025,0.298829 -0.455078,0.464844 -1.118611,1.325964 -1.917983,2.991831 -1.904297,4.726563 0.01142,1.447939 0.609348,2.881952 1.632813,3.90625 0.244187,-1.121492 0.746572,-2.186858 1.455078,-3.089844 0.417922,-0.532639 0.909027,-1.011714 1.476562,-1.38086 0.567533,-0.369143 1.212785,-0.62648 1.884766,-0.708984 0.649762,-0.07978 1.316215,0.0067 1.935547,0.21875 0.619334,0.212088 1.192546,0.550312 1.699219,0.964844 1.213522,0.992842 2.039807,2.445382 2.271484,3.996094 0.660031,-1.406679 0.914749,-2.998627 0.726563,-4.541016 -0.114641,-0.939544 -0.413676,-1.851333 -0.837891,-2.697266 1.267752,0.141519 2.570508,0.233448 3.925781,0.244141 2.507331,-0.163965 4.119664,-0.243214 5.613281,-0.363281 -0.434944,0.85636 -0.741075,1.780774 -0.857421,2.734375 -0.188188,1.542384 0.06652,3.134342 0.726562,4.541015 0.231675,-1.550706 1.057967,-3.00325 2.271484,-3.996094 0.506673,-0.414533 1.079887,-0.754709 1.699219,-0.966796 0.619332,-0.212088 1.283834,-0.292667 1.933594,-0.212891 0.67198,0.0825 1.31723,0.335933 1.884765,0.705078 0.567537,0.369143 1.058642,0.84822 1.476563,1.380859 0.708505,0.902987 1.212843,1.968358 1.457031,3.089844 1.023463,-1.024292 1.621387,-2.458314 1.632813,-3.90625 0.01373,-1.734733 -0.787636,-3.400596 -1.90625,-4.726562 -0.231861,-0.27484 -0.492082,-0.524714 -0.753907,-0.771485 2.594904,-1.063008 4.087891,-2.234375 4.087891,-2.234375 l 0.634766,0.544922 1.996093,2.089844 2.453126,2.455078 c 0,0 0.258588,-1.756293 0.363281,-2.636719 0.107838,-0.906736 0.106231,-1.829242 0.27539,-2.726562 0.145658,-0.772676 0.429889,-1.512884 0.636719,-2.271485 0.403868,-1.481315 0.733564,-2.980078 1.179688,-4.449218 0.32561,-1.072257 0.759971,-2.109342 1.091796,-3.179688 0.335085,-1.080851 0.685995,-2.165824 0.908204,-3.27539 0.191795,-0.957697 0.270234,-1.93184 0.361328,-2.904297 0.09057,-0.966832 0.178051,-1.935193 0.18164,-2.90625 0.0057,-1.637987 -0.05841,-3.284122 -0.271484,-4.908203 -0.193168,-1.47235 -0.491733,-2.937911 -0.908203,-4.363282 -0.454335,-1.55497 -1.014688,-3.085834 -1.726563,-4.54102 C 57.242278,17.734148 56.34511,16.356704 55.414062,15.017578 54.577009,13.813648 53.421677,12.833739 52.6875,11.564453 52.524177,11.282089 52.42737,10.96766 52.324219,10.658203 52.066341,9.8845619 51.796384,9.1033725 51.689453,8.2949219 c -0.103256,-0.7806533 -0.107163,-1.5831559 0,-2.3632813 0.106994,-0.7789714 0.289923,-1.5609494 0.634766,-2.2675781 0.313492,-0.6423748 0.843932,-1.1586349 1.27539,-1.7285156 0.416884,-0.5506277 1.269532,-1.6367187 1.269532,-1.63671878 0,0 -2.42234,-0.37664907 -3.632813,-0.27343749 z M 19.34375,10.771484 a 11.539185,11.539185 0 0 1 11.539062,11.539063 11.539185,11.539185 0 0 1 -0.11914,1.548828 c -0.414941,0.126347 -0.819333,0.290603 -1.199219,0.5 -1.241857,0.684525 -2.229108,1.797788 -2.826172,3.083984 -0.555184,1.195994 -0.779873,2.544062 -0.642578,3.855469 0.02356,0.09866 0.05432,0.194859 0.08008,0.292969 A 11.539185,11.539185 0 0 1 19.34375,33.849609 11.539185,11.539185 0 0 1 7.8046875,22.310547 11.539185,11.539185 0 0 1 19.34375,10.771484 Z m 26.076172,0.08984 A 11.539185,11.539185 0 0 1 56.958984,22.400391 11.539185,11.539185 0 0 1 45.419922,33.941406 11.539185,11.539185 0 0 1 38.537109,31.646484 c 0.0068,-0.03085 0.01706,-0.06085 0.02344,-0.0918 C 38.699595,30.87998 38.739867,30.186888 38.6875,29.5 38.608546,28.464411 38.313045,27.439698 37.789062,26.542969 37.263605,25.643712 36.509219,24.877062 35.605469,24.359375 35.097582,24.06845 34.54369,23.860839 33.972656,23.732422 a 11.539185,11.539185 0 0 1 -0.0918,-1.332031 11.539185,11.539185 0 0 1 11.539063,-11.539063 z m 2.90625,6.783203 a 5.815023,5.815023 0 0 0 -5.816406,5.814453 5.815023,5.815023 0 0 0 5.816406,5.816407 5.815023,5.815023 0 0 0 5.814453,-5.816407 5.815023,5.815023 0 0 0 -5.814453,-5.814453 z m -26.664063,0.06445 a 5.815023,5.815023 0 0 0 -5.814453,5.814454 5.815023,5.815023 0 0 0 5.814453,5.816406 5.815023,5.815023 0 0 0 5.816407,-5.816406 5.815023,5.815023 0 0 0 -5.816407,-5.814454 z m 26.664063,1.960938 a 3.7906045,3.7906045 0 0 1 3.789062,3.789062 3.7906045,3.7906045 0 0 1 -3.789062,3.791016 3.7906045,3.7906045 0 0 1 -3.791016,-3.791016 3.7906045,3.7906045 0 0 1 3.791016,-3.789062 z m -26.664063,0.06445 a 3.7906045,3.7906045 0 0 1 3.791016,3.789063 3.7906045,3.7906045 0 0 1 -3.791016,3.791015 3.7906045,3.7906045 0 0 1 -3.789062,-3.791015 3.7906045,3.7906045 0 0 1 3.789062,-3.789063 z m 10.564453,4.400391 c 1.069742,-0.05874 2.158142,0.176183 3.089844,0.705078 0.834058,0.473465 1.53425,1.175863 2.021485,2.001953 0.484039,0.820672 0.758899,1.759011 0.832031,2.708984 0.04847,0.629577 0.0094,1.266552 -0.119141,1.884766 -0.180435,0.867677 -0.535053,1.690182 -0.951172,2.472656 -0.50825,0.955717 -1.111249,1.860344 -1.783203,2.708985 -0.523634,0.66132 -1.090418,1.291345 -1.544922,2.001953 -0.676229,1.05727 -1.089022,2.282195 -1.189453,3.533203 -0.135522,-1.315581 -0.633483,-2.591437 -1.425781,-3.650391 -0.635819,-0.849809 -1.447875,-1.551393 -2.140625,-2.355469 -0.867725,-1.007169 -1.544158,-2.174501 -2.019531,-3.416015 -0.191217,-0.499396 -0.351215,-1.011397 -0.476563,-1.53125 -0.126351,-1.202407 0.08287,-2.43833 0.595703,-3.533203 0.553662,-1.18204 1.469664,-2.200532 2.615235,-2.826172 0.765313,-0.417967 1.625397,-0.65727 2.496093,-0.705078 z m 27.390626,12.328125 -1.976563,5.019531 0.06641,-0.07031 -1.939453,4.945313 0.0332,-0.03711 -2,5.087891 -3.314453,-4.271484 2.951172,1.728515 2.236328,-2.408203 0.03711,0.04492 0.05664,-0.144531 -0.09375,0.09766 -3.271484,-4.214844 -0.03125,0.08398 -0.01367,-0.01758 -1.917969,4.875 -3.195312,-4.115235 -0.0293,0.07422 -3.316406,-4.269531 2.953124,1.724609 2.277344,-2.449219 -0.07422,-0.0957 0.103515,0.0625 0.05664,-0.0625 -0.0293,0.07813 2.822265,1.650391 2.304688,-2.482422 -0.01172,-0.01758 0.01563,0.01367 -0.0039,0.0039 0.02148,0.02734 0.0078,-0.01953 -0.02344,-0.01367 0.05273,-0.05664 -0.0293,0.07031 2.912109,1.703124 z m -5.283204,0.861328 -1.93164,4.912109 2.945312,1.720703 2.251953,-2.429687 z m 3.265625,4.203125 0.01563,0.02148 0.02539,-0.06641 z m -8.414062,-3.398438 -0.02734,-0.01563 -0.0293,0.0332 0.0332,0.04102 z m -0.02344,0.0586 -1.892578,4.8125 2.806641,1.636719 2.228516,-2.396485 z m 3.142579,4.052734 0.05273,0.06641 0.08203,-0.208985 z M 47.269531,43 47.125,42.914062 l 0.119141,0.152344 z m -42.7812498,-6.380859 2.3632813,2.544921 2.9121094,-1.699218 -0.029297,-0.07031 0.052734,0.05859 0.017578,-0.01172 -0.011719,0.01563 2.3046871,2.478516 2.820313,-1.646485 -0.0293,-0.07812 0.05859,0.0625 0.103515,-0.0625 -0.07422,0.0957 2.275391,2.449218 2.953125,-1.728515 -3.314453,4.273437 -0.0293,-0.07422 -3.197266,4.115235 -1.917968,-4.878906 -0.01172,0.01758 -0.0332,-0.08203 -3.2695313,4.21875 2.2343753,2.404296 2.953125,-1.724609 -3.316407,4.269531 -1.9999995,-5.085937 0.033203,0.03711 -1.9414063,-4.945312 0.068359,0.07813 z m 1.9746094,5.03125 0.025391,0.05859 L 6.5,41.693359 Z M 6.5,41.693359 8.7578125,44.117188 11.701172,42.394531 9.7714844,37.486328 Z m 3.2714844,-4.207031 0.021484,-0.0293 -0.00586,-0.0039 -0.023437,0.01172 z m -1.4355469,9.03125 0.058594,0.144531 0.037109,-0.04492 z m 3.4101565,-4.054687 0.05469,-0.06445 -0.136719,-0.144532 z m 0.05469,-0.06445 2.226563,2.40039 2.804687,-1.642578 -1.888672,-4.808594 z m 3.142578,-4.050782 0.0332,-0.04102 -0.0293,-0.0332 -0.0293,0.01758 z m 1.888672,4.808594 0.0293,0.07031 0.119141,-0.15625 z"
           transform="matrix(0.47357773,0,0,0.47357773,2.3485685,0.63767383)"
           id="path4138"
           inkscape:connector-curvature="0" />
        <circle
           style="fill:#000000;fill-opacity:1;stroke:#aeb0b3;stroke-width:0;stroke-miterlimit:4;stroke-dasharray:none;stroke-opacity:1"
           id="path4200"
           cx="24.321693"
           cy="11.017491"
           r="0.48681921" />
        <circle
           style="fill:#000000;fill-opacity:1;stroke:#aeb0b3;stroke-width:0;stroke-miterlimit:4;stroke-dasharray:none;stroke-opacity:1"
           id="path4200-5"
           cx="11.664395"
           cy="11.078344"
           r="0.48681921" />
      </g>
    </g>
  </g>
</svg>
