<?xml version="1.0" encoding="UTF-8" standalone="no"?>
<!-- Generated by IcoMoon.io -->

<svg
   xmlns:dc="http://purl.org/dc/elements/1.1/"
   xmlns:cc="http://creativecommons.org/ns#"
   xmlns:rdf="http://www.w3.org/1999/02/22-rdf-syntax-ns#"
   xmlns:svg="http://www.w3.org/2000/svg"
   xmlns="http://www.w3.org/2000/svg"
   xmlns:sodipodi="http://sodipodi.sourceforge.net/DTD/sodipodi-0.dtd"
   xmlns:inkscape="http://www.inkscape.org/namespaces/inkscape"
   version="1.1"
   width="64"
   height="64"
   viewBox="0 0 64 64"
   id="svg2"
   inkscape:version="0.92.3 (2405546, 2018-03-11)"
   sodipodi:docname="python.svg">
  <metadata
     id="metadata10">
    <rdf:RDF>
      <cc:Work
         rdf:about="">
        <dc:format>image/svg+xml</dc:format>
        <dc:type
           rdf:resource="http://purl.org/dc/dcmitype/StillImage" />
        <dc:title></dc:title>
      </cc:Work>
    </rdf:RDF>
  </metadata>
  <defs
     id="defs8" />
  <sodipodi:namedview
     pagecolor="#ffffff"
     bordercolor="#666666"
     borderopacity="1"
     objecttolerance="10"
     gridtolerance="10"
     guidetolerance="10"
     inkscape:pageopacity="0"
     inkscape:pageshadow="2"
     inkscape:window-width="1920"
     inkscape:window-height="1026"
     id="namedview6"
     showgrid="false"
     inkscape:zoom="5.6568543"
     inkscape:cx="-4.0212988"
     inkscape:cy="32.457243"
     inkscape:window-x="0"
     inkscape:window-y="0"
     inkscape:window-maximized="1"
     inkscape:current-layer="svg2" />
  <path
     style="fill:#000000;fill-opacity:1;stroke-width:2.05979943"
     d="m 31.626649,0.02071297 c -2.608193,0.01400663 -5.102,0.23529707 -7.293784,0.6235734 C 17.875685,1.783788 16.705171,4.1704447 16.705171,8.5737089 v 5.8173251 h 15.25539 v 1.939108 H 10.976354 c -4.4342131,0 -8.3191493,2.663418 -9.5346185,7.736316 -1.40116625,5.812869 -1.46306529,9.439935 0,15.508842 1.0832299,4.518621 3.6762477,7.736314 8.1104604,7.736318 h 5.2460511 v -6.971939 c 0,-5.036321 4.360434,-9.478297 9.534618,-9.478297 v -0.0041 h 15.243322 c 4.242891,0 7.627695,-3.489823 7.627695,-7.75241 V 8.5736121 c 0,-4.1359723 -3.486095,-7.2400921 -7.627695,-7.92942255 C 36.953924,0.20808263 34.234845,0.00654773 31.626649,0.02061616 Z M 23.371358,4.6995166 c 1.575608,0 2.864408,1.3073361 2.864408,2.9167069 0,1.6037454 -1.285987,2.8965935 -2.864408,2.8965935 -1.581237,0 -2.864409,-1.2956618 -2.864409,-2.8965935 0,-1.6093708 1.280359,-2.9167069 2.864409,-2.9167069 z M 49.106783,16.326118 v 6.774809 c 0,5.252966 -4.456094,9.675426 -9.534619,9.675426 H 24.332865 c -4.175363,0 -7.631717,3.575441 -7.631717,7.756432 v 14.527217 c 0,4.135973 3.597036,6.569099 7.631717,7.756433 4.830929,1.420862 9.460194,1.676897 15.239299,0 3.840546,-1.111366 7.631718,-3.35317 7.631718,-7.756433 V 49.246703 H 31.960561 v -1.93911 h 22.871016 c 4.434215,0 6.08706,-3.095108 7.631718,-7.740339 1.59249,-4.780283 1.524964,-9.3712 0,-15.504819 h -0.0041 C 61.364921,19.647918 59.27427,16.326118 54.831614,16.326118 Z m -8.57311,36.7988 c 1.581236,0 2.864408,1.295661 2.864406,2.896593 0,1.609373 -1.283175,2.920731 -2.864406,2.920731 -1.575609,0 -2.864409,-1.311358 -2.864411,-2.920731 0,-1.603745 1.285986,-2.896593 2.864411,-2.896593 z"
     id="path4144"
     inkscape:connector-curvature="0" />
</svg>
