<?xml version="1.0" encoding="UTF-8" standalone="no"?>
<svg
   xmlns:dc="http://purl.org/dc/elements/1.1/"
   xmlns:cc="http://creativecommons.org/ns#"
   xmlns:rdf="http://www.w3.org/1999/02/22-rdf-syntax-ns#"
   xmlns:svg="http://www.w3.org/2000/svg"
   xmlns="http://www.w3.org/2000/svg"
   xmlns:sodipodi="http://sodipodi.sourceforge.net/DTD/sodipodi-0.dtd"
   xmlns:inkscape="http://www.inkscape.org/namespaces/inkscape"
   width="46.5pt"
   height="46.277721pt"
   viewBox="0 0 46.5 46.277721"
   version="1.1"
   id="svg19"
   sodipodi:docname="r.svg"
   inkscape:version="0.92.4 (unknown)">
  <metadata
     id="metadata23">
    <rdf:RDF>
      <cc:Work
         rdf:about="">
        <dc:format>image/svg+xml</dc:format>
        <dc:type
           rdf:resource="http://purl.org/dc/dcmitype/StillImage" />
        <dc:title></dc:title>
      </cc:Work>
    </rdf:RDF>
  </metadata>
  <sodipodi:namedview
     pagecolor="#ffffff"
     bordercolor="#666666"
     borderopacity="1"
     objecttolerance="10"
     gridtolerance="10"
     guidetolerance="10"
     inkscape:pageopacity="0"
     inkscape:pageshadow="2"
     inkscape:window-width="1299"
     inkscape:window-height="713"
     id="namedview21"
     showgrid="false"
     inkscape:zoom="5.53125"
     inkscape:cx="62.738922"
     inkscape:cy="21.868994"
     inkscape:window-x="67"
     inkscape:window-y="27"
     inkscape:window-maximized="1"
     inkscape:current-layer="svg19"
     fit-margin-top="0"
     fit-margin-left="0"
     fit-margin-right="0"
     fit-margin-bottom="0" />
  <defs
     id="defs12">
    <linearGradient
       id="linear0"
       gradientUnits="userSpaceOnUse"
       x1="0"
       y1="0"
       x2="1"
       y2="1"
       gradientTransform="matrix(31.871094,0,0,27.546875,0.0390625,0.171875)">
      <stop
         id="stop2"
         style="stop-color:rgb(79.607843%,80.784314%,81.568627%);stop-opacity:1;;opacity:1"
         offset="0" />
      <stop
         id="stop4"
         style="stop-color:rgb(51.764706%,51.372549%,54.509804%);stop-opacity:1;;opacity:1"
         offset="1" />
    </linearGradient>
    <linearGradient
       id="linear1"
       gradientUnits="userSpaceOnUse"
       x1="0"
       y1="0"
       x2="1"
       y2="1"
       gradientTransform="matrix(17.589844,0,0,23.167969,13.171875,8.722656)">
      <stop
         id="stop7"
         style="stop-color:rgb(15.294118%,42.745098%,76.470588%);stop-opacity:1;;opacity:1"
         offset="0" />
      <stop
         id="stop9"
         style="stop-color:rgb(8.627451%,36.078431%,66.666667%);stop-opacity:1;;opacity:1"
         offset="1" />
    </linearGradient>
    <linearGradient
       gradientTransform="matrix(31.871094,0,0,27.546875,0.0390625,0.171875)"
       y2="1"
       x2="1"
       y1="0"
       x1="0"
       gradientUnits="userSpaceOnUse"
       id="linear0-349">
      <stop
         id="stop3736"
         style="stop-color:rgb(79.607843%,80.784314%,81.568627%);stop-opacity:1;;opacity:1"
         offset="0" />
      <stop
         id="stop3738"
         style="stop-color:rgb(51.764706%,51.372549%,54.509804%);stop-opacity:1;;opacity:1"
         offset="1" />
    </linearGradient>
    <linearGradient
       gradientTransform="matrix(17.589844,0,0,23.167969,13.171875,8.722656)"
       y2="1"
       x2="1"
       y1="0"
       x1="0"
       gradientUnits="userSpaceOnUse"
       id="linear1-683">
      <stop
         id="stop3741"
         style="stop-color:rgb(15.294118%,42.745098%,76.470588%);stop-opacity:1;;opacity:1"
         offset="0" />
      <stop
         id="stop3743"
         style="stop-color:rgb(8.627451%,36.078431%,66.666667%);stop-opacity:1;;opacity:1"
         offset="1" />
    </linearGradient>
  </defs>
  <g
     id="surface1-0"
     transform="matrix(1.4590023,0,0,1.4590023,-0.05699228,-0.25076602)"
     inkscape:export-xdpi="96"
     inkscape:export-ydpi="96"
     style="fill:#000000">
    <path
       style="opacity:1;fill:#000000;fill-rule:evenodd;stroke:none"
       d="m 15.976562,27.71875 c -8.800781,0 -15.9374995,-6.167969 -15.9374995,-13.773438 0,-7.609374 7.1367185,-13.773437 15.9374995,-13.773437 8.800782,0 15.933594,6.164063 15.933594,13.773437 0,7.605469 -7.132812,13.773438 -15.933594,13.773438 z m 2.4375,-22.164062 c -6.6875,0 -12.113281,4.21875 -12.113281,9.417968 0,5.199219 5.425781,9.414063 12.113281,9.414063 6.691407,0 11.628907,-2.878907 11.628907,-9.414063 0,-6.53125 -4.9375,-9.417968 -11.628907,-9.417968 z m 0,0"
       id="path14-9"
       inkscape:connector-curvature="0" />
    <path
       style="opacity:1;fill:#000000;fill-rule:evenodd;stroke:none"
       d="m 24.308594,21.503906 c 0,0 0.964844,0.375 1.527344,0.742188 0.191406,0.125 0.527343,0.378906 0.773437,0.714844 0.234375,0.324218 0.351563,0.652343 0.351563,0.652343 l 3.800781,8.273438 -6.144531,0.0039 -2.871094,-6.964844 c 0,0 -0.589844,-1.304687 -0.949219,-1.679687 -0.304687,-0.316406 -0.433594,-0.429688 -0.730469,-0.429688 -0.207031,0 -1.460937,0 -1.460937,0 l 0.0039,9.066406 -5.4375,0.0039 V 8.722656 h 10.917969 c 0,0 4.972656,0.117188 4.972656,6.222656 0,6.105469 -4.753906,6.558594 -4.753906,6.558594 z M 21.945312,13.75 18.652344,13.7461 v 3.9375 h 3.292968 c 0,0 1.523438,-0.0078 1.523438,-2.003906 0,-2.039063 -1.523438,-1.929688 -1.523438,-1.929688 z m 0,0"
       id="path16-3"
       inkscape:connector-curvature="0" />
  </g>
</svg>
