<?xml version="1.0" encoding="UTF-8" standalone="no"?>
<!-- Generated by IcoMoon.io -->

<svg
   xmlns:dc="http://purl.org/dc/elements/1.1/"
   xmlns:cc="http://creativecommons.org/ns#"
   xmlns:rdf="http://www.w3.org/1999/02/22-rdf-syntax-ns#"
   xmlns:svg="http://www.w3.org/2000/svg"
   xmlns="http://www.w3.org/2000/svg"
   xmlns:sodipodi="http://sodipodi.sourceforge.net/DTD/sodipodi-0.dtd"
   xmlns:inkscape="http://www.inkscape.org/namespaces/inkscape"
   version="1.1"
   width="64"
   height="64"
   viewBox="0 0 64 64"
   id="svg42"
   inkscape:version="0.92.3 (2405546, 2018-03-11)"
   sodipodi:docname="ruby.svg">
  <metadata
     id="metadata50">
    <rdf:RDF>
      <cc:Work
         rdf:about="">
        <dc:format>image/svg+xml</dc:format>
        <dc:type
           rdf:resource="http://purl.org/dc/dcmitype/StillImage" />
        <dc:title></dc:title>
      </cc:Work>
    </rdf:RDF>
  </metadata>
  <defs
     id="defs48" />
  <sodipodi:namedview
     pagecolor="#ffffff"
     bordercolor="#666666"
     borderopacity="1"
     objecttolerance="10"
     gridtolerance="10"
     guidetolerance="10"
     inkscape:pageopacity="0"
     inkscape:pageshadow="2"
     inkscape:window-width="1920"
     inkscape:window-height="1026"
     id="namedview46"
     showgrid="false"
     inkscape:zoom="5.6568543"
     inkscape:cx="-4.9843145"
     inkscape:cy="50.232405"
     inkscape:window-x="0"
     inkscape:window-y="0"
     inkscape:window-maximized="1"
     inkscape:current-layer="svg42" />
  <path
     style="fill:#000000;fill-opacity:1;stroke-width:2.04550767"
     d="M 52.155442,1.3613269 C 47.225716,2.0239385 42.29397,2.6861 37.113769,3.3828653 c 1.411748,0.6170684 2.499486,1.0771725 3.911234,0.7151279 3.470163,-0.8948646 6.995447,-1.5960891 10.495213,-2.3771028 0.225425,-0.050094 0.448038,-0.1240192 0.671182,-0.1877776 -0.01145,-0.056927 -0.02457,-0.1148553 -0.03596,-0.1717818 z m 8.601519,0.3595635 c -5.243955,1.1635522 -10.420791,2.3121703 -15.60099,3.4597838 -0.0092,0.059197 -0.01882,0.116594 -0.02796,0.1757911 v 0.00409 C 51.296433,7.0683137 57.464457,8.7712868 63.849197,10.538247 62.774442,7.4779512 61.781616,4.6401264 60.756961,1.7209988 Z M 34.177347,4.4935106 c -0.202649,-0.070591 -0.52622,0.068811 -0.747089,0.1917662 -3.483827,1.944568 -7.031071,3.7906223 -10.403326,5.9127962 -1.687263,1.061088 -3.060731,2.62549 -4.554449,3.987142 -2.409078,2.197315 -4.814597,4.399889 -7.187243,6.635915 -0.630732,0.5943 -1.204379,1.270598 -1.6939358,1.985581 -1.6235091,2.363535 -3.1958214,4.763469 -4.8421011,7.227193 0.9185434,0.952648 1.7594045,1.866722 2.6527677,2.712695 0.1955914,0.182562 0.6707219,0.284485 0.8949096,0.175791 3.9619996,-1.946842 7.9523956,-3.84823 11.8255906,-5.956741 1.263742,-0.687657 2.23554,-1.920834 3.32395,-2.920441 3.604508,-3.306222 7.20516,-6.618848 10.802838,-9.931899 0.220869,-0.202648 0.479189,-0.400177 0.611256,-0.655203 C 36.153857,11.332897 37.41968,8.7951844 38.735793,6.1834517 37.166934,5.5937052 35.682452,5.0172239 34.177347,4.4935106 Z m 6.931554,1.8058006 c -0.156543,0.030458 -0.289678,0.1381945 -0.411498,0.3875276 -1.16583,2.390861 -2.37162,4.7615432 -3.555668,7.1432952 -0.03643,0.07286 -0.02862,0.171127 -0.05593,0.355568 7.154369,-1.083857 14.257698,-2.163026 21.361973,-3.240052 0.0025,-0.0501 0.0059,-0.09773 0.008,-0.147829 C 56.158259,10.189859 53.857671,9.5777282 51.560167,8.9720452 48.256224,8.1045044 44.949911,7.2478643 41.648245,6.3712149 41.442174,6.316559 41.265446,6.2688577 41.108901,6.2992949 Z M 63.77728,11.884506 c -1.247186,1.873055 -2.498528,3.744097 -3.743439,5.617155 -4.278503,6.43711 -8.554421,12.873083 -12.828367,19.312469 -0.23909,0.359769 -0.546466,0.643509 -0.211744,1.194544 4.130498,6.81965 8.225245,13.661719 12.332974,20.495028 0.648947,1.079304 1.301172,2.152076 2.141391,3.188116 0.828831,-16.585748 1.661853,-33.169627 2.492962,-49.755376 -0.06148,-0.01821 -0.124571,-0.036 -0.183768,-0.05194 z m -2.42105,0.07591 c -8.019632,1.338882 -15.846476,2.648214 -23.77503,3.971161 2.700534,6.569177 5.346862,13.006538 8.070167,19.628084 5.266725,-7.912613 10.42847,-15.666138 15.708859,-23.599245 z m -25.54887,3.815351 c -4.542636,4.15327 -9.013529,8.244871 -13.599428,12.436848 7.222679,2.34532 14.297544,4.639925 21.581703,7.003467 C 41.084545,28.62641 38.473741,22.267524 35.80736,15.775767 Z M 20.122471,29.62689 c -3.934675,2.044755 -7.686956,3.990647 -11.541936,5.996692 1.967339,5.114168 4.064401,10.510733 6.120544,15.820723 0.0592,-0.01145 0.118312,-0.02856 0.179779,-0.03995 1.725973,-7.181693 3.476929,-14.313425 5.241611,-21.777466 z m 1.753863,0.291645 C 19.90702,38.242018 17.947547,46.518999 15.923589,55.067891 25.414169,48.951839 34.686993,42.975744 43.897502,37.041855 36.567804,34.669208 29.260683,32.307116 21.876334,29.918535 Z M 3.8063529,32.335588 c -1.2774032,6.307319 -2.5218838,12.455123 -3.76740982,18.60533 0.045533,0.02057 0.0942979,0.04514 0.13983091,0.06791 0.0956275,-0.152554 0.21306826,-0.299491 0.28365463,-0.463437 h -0.004091 C 2.5167565,45.770507 4.5672858,40.989196 6.6348114,36.218856 6.8420192,35.740686 6.824389,35.413122 6.4190757,35.028307 5.5538117,34.206305 4.7512179,33.316982 3.8062588,32.335588 Z m 3.8912592,5.661104 C 5.1359739,44.119571 2.6611898,50.034271 0.14281601,56.054687 4.983741,55.911236 9.6769762,55.77066 14.529287,55.627207 12.249999,49.747964 10.017885,43.98523 7.6976121,37.996692 Z M 45.503546,38.37623 C 36.211064,44.364767 27.004915,50.297555 17.557597,56.386285 31.70922,58.317188 45.607754,60.215798 59.782148,62.151259 54.952609,54.111132 50.24656,46.27518 45.503546,38.37623 Z M 14.537278,57.648741 c -1.758351,-0.04144 -3.537427,0.106755 -5.3015403,0.135842 -1.9331826,0.03417 -3.8620371,0.104607 -5.7929431,0.163804 -0.2003779,0.007 -0.401169,0.04566 -0.5992683,0.259683 15.9732327,1.477779 31.9466607,2.952824 47.9176147,4.430603 0.01145,-0.07059 0.02064,-0.14116 0.03197,-0.211743 C 45.672116,61.727886 40.552825,61.028525 35.431828,60.329487 29.051642,59.457391 22.683279,58.498369 16.287155,57.760616 v 0.0041 c -0.580067,-0.0666 -1.163751,-0.102051 -1.749867,-0.115857 z"
     id="path4157"
     inkscape:connector-curvature="0" />
</svg>
