<?xml version="1.0" encoding="UTF-8" standalone="no"?>
<!-- Created with Inkscape (http://www.inkscape.org/) -->

<svg
   xmlns:dc="http://purl.org/dc/elements/1.1/"
   xmlns:cc="http://creativecommons.org/ns#"
   xmlns:rdf="http://www.w3.org/1999/02/22-rdf-syntax-ns#"
   xmlns:svg="http://www.w3.org/2000/svg"
   xmlns="http://www.w3.org/2000/svg"
   xmlns:sodipodi="http://sodipodi.sourceforge.net/DTD/sodipodi-0.dtd"
   xmlns:inkscape="http://www.inkscape.org/namespaces/inkscape"
   width="190.89709mm"
   height="232.42154mm"
   viewBox="0 0 190.89709 232.42154"
   version="1.1"
   id="svg843"
   inkscape:version="0.92.3 (2405546, 2018-03-11)"
   sodipodi:docname="SQL.svg">
  <defs
     id="defs837" />
  <sodipodi:namedview
     id="base"
     pagecolor="#ffffff"
     bordercolor="#666666"
     borderopacity="1.0"
     inkscape:pageopacity="0.0"
     inkscape:pageshadow="2"
     inkscape:zoom="0.35"
     inkscape:cx="-128.95713"
     inkscape:cy="437.96197"
     inkscape:document-units="mm"
     inkscape:current-layer="layer1"
     showgrid="false"
     fit-margin-top="0"
     fit-margin-left="0"
     fit-margin-right="0"
     fit-margin-bottom="0"
     inkscape:window-width="1920"
     inkscape:window-height="1026"
     inkscape:window-x="0"
     inkscape:window-y="0"
     inkscape:window-maximized="1" />
  <metadata
     id="metadata840">
    <rdf:RDF>
      <cc:Work
         rdf:about="">
        <dc:format>image/svg+xml</dc:format>
        <dc:type
           rdf:resource="http://purl.org/dc/dcmitype/StillImage" />
        <dc:title></dc:title>
      </cc:Work>
    </rdf:RDF>
  </metadata>
  <g
     inkscape:label="Layer 1"
     inkscape:groupmode="layer"
     id="layer1"
     transform="translate(-9.5514557,-32.289228)">
    <path
       style="display:inline;fill:#000000;fill-opacity:1;stroke:none;stroke-width:0;stroke-linecap:round;stroke-linejoin:round;stroke-miterlimit:4;stroke-dasharray:none;stroke-dashoffset:0;stroke-opacity:1;paint-order:fill markers stroke"
       d="m 104.99296,32.290179 c -52.709635,0 -95.4397595,10.703847 -95.4415043,23.907948 0.00228,0.01363 0.00462,0.02726 0.00705,0.05453 V 240.817 c 0.032715,13.19851 42.7538153,23.89377 95.4414843,23.89377 52.68767,0 95.4087,-10.69526 95.44155,-23.89377 h 0.007 V 56.224436 h -0.0273 c 0.002,-0.0071 0.005,-0.01363 0.007,-0.02726 -10e-4,-13.204101 -42.73147,-23.907948 -95.44109,-23.907948 z m 91.36287,23.929077 v 4.466025 c -57.02823,14.09109 -117.200661,17.17272 -182.662406,0 V 56.240384 C 94.549317,75.276095 135.1716,68.744518 196.35583,56.213122 Z M 47.075757,126.78076 c 2.967276,0 6.014241,0.31215 9.150382,0.93647 3.136141,0.5916 6.381796,1.49644 9.735057,2.71195 v 15.57472 c -2.967277,-1.80683 -5.862948,-3.17282 -8.685474,-4.09267 -2.822525,-0.92011 -5.486219,-1.38071 -7.995129,-1.38071 -3.329133,0 -5.790102,0.62568 -7.382293,1.87376 -1.592205,1.24863 -2.387973,3.18332 -2.387973,5.81143 0,1.97109 0.53053,3.51811 1.591973,4.63506 1.085597,1.08369 3.038227,2.0222 5.860753,2.81064 l 5.938233,1.62717 c 6.006922,1.64257 10.273275,4.1371 12.806313,7.48794 2.533037,3.35085 3.803857,8.11663 3.803857,14.2927 0,8.11417 -1.779145,14.15666 -5.325397,18.13168 -3.522125,3.94218 -8.912053,5.90999 -16.173423,5.90999 -3.425629,0 -6.862913,-0.44438 -10.312669,-1.33178 -3.449757,-0.88739 -6.898136,-2.19654 -10.347893,-3.93767 v -16.01842 c 3.449757,2.49671 6.78013,4.38942 9.98864,5.67062 3.232637,1.24863 6.342129,1.87376 9.333533,1.87376 3.039645,0 5.36445,-0.69111 6.980769,-2.071 1.616318,-1.37976 2.430244,-3.3548 2.430244,-5.91708 0,-2.2996 -0.559702,-4.07004 -1.669467,-5.31839 -1.085598,-1.24863 -3.263158,-2.36749 -6.544036,-3.35303 l -5.395844,-1.62717 c -5.403804,-1.57687 -9.360509,-4.08789 -11.869433,-7.53729 -2.484782,-3.44941 -3.726363,-8.1 -3.726363,-13.94742 0,-7.32587 1.73881,-12.95683 5.212694,-16.899 3.47387,-3.94218 8.46943,-5.91708 14.982946,-5.91708 z m 59.375343,0 c 8.75706,0 15.57615,3.35739 20.44923,10.05908 4.8972,6.70156 7.34707,16.07799 7.34707,28.13434 0,8.27856 -1.30411,15.40719 -3.90951,21.38616 -2.5813,5.97896 -6.30604,10.48138 -11.17911,13.50371 l 10.89028,16.55372 h -13.2853 l -8.82635,-13.40502 h -1.08478 c -8.901812,0 -15.82781,-3.35044 -20.773262,-10.052 -4.945438,-6.7017 -7.417503,-16.02864 -7.417503,-27.98657 0,-11.92494 2.460956,-21.26838 7.382293,-28.03578 4.945452,-6.7674 11.746397,-10.15764 20.406962,-10.15764 z m 38.28507,1.33178 h 13.93338 v 59.23457 h 24.46446 v 14.33481 h -38.39784 z m -38.28507,12.41893 c -4.24585,0 -7.535894,2.13957 -9.875939,6.41026 -2.340032,4.27055 -3.50799,10.28019 -3.50799,18.03299 0,7.88435 1.145711,13.92684 3.437557,18.13169 2.29179,4.17213 5.604022,6.26235 9.946372,6.26235 4.26997,0 7.57814,-2.13957 9.91819,-6.41025 2.34004,-4.27069 3.508,-10.2637 3.508,-17.98379 0,-7.7528 -1.16793,-13.76244 -3.508,-18.03299 -2.34005,-4.27069 -5.64822,-6.41026 -9.91819,-6.41026 z"
       id="rect860"
       inkscape:connector-curvature="0"
       sodipodi:nodetypes="scccscccccscccccscccssssccccscsscccscsccccsssscscccccssscscccccccscscscscs" />
  </g>
</svg>
