<?xml version="1.0" encoding="UTF-8" standalone="no"?>
<!-- Created with Inkscape (http://www.inkscape.org/) -->

<svg
   xmlns:dc="http://purl.org/dc/elements/1.1/"
   xmlns:cc="http://creativecommons.org/ns#"
   xmlns:rdf="http://www.w3.org/1999/02/22-rdf-syntax-ns#"
   xmlns:svg="http://www.w3.org/2000/svg"
   xmlns="http://www.w3.org/2000/svg"
   xmlns:sodipodi="http://sodipodi.sourceforge.net/DTD/sodipodi-0.dtd"
   xmlns:inkscape="http://www.inkscape.org/namespaces/inkscape"
   width="64"
   height="64"
   id="svg7473"
   version="1.1"
   inkscape:version="0.92.3 (2405546, 2018-03-11)"
   viewBox="0 0 64 64"
   sodipodi:docname="wollok.svg">
  <defs
     id="defs7475">
    <inkscape:path-effect
       effect="spiro"
       id="path-effect8184"
       is_visible="true" />
    <inkscape:path-effect
       effect="spiro"
       id="path-effect8159"
       is_visible="true" />
    <inkscape:path-effect
       effect="spiro"
       id="path-effect7524"
       is_visible="true" />
  </defs>
  <sodipodi:namedview
     id="base"
     pagecolor="#ffffff"
     bordercolor="#666666"
     borderopacity="1.0"
     inkscape:pageopacity="0.0"
     inkscape:pageshadow="2"
     inkscape:zoom="16"
     inkscape:cx="-4.939312"
     inkscape:cy="15.248049"
     inkscape:current-layer="layer1"
     showgrid="true"
     inkscape:grid-bbox="true"
     inkscape:document-units="px"
     inkscape:window-width="1920"
     inkscape:window-height="1026"
     inkscape:window-x="0"
     inkscape:window-y="0"
     inkscape:window-maximized="1" />
  <metadata
     id="metadata7478">
    <rdf:RDF>
      <cc:Work
         rdf:about="">
        <dc:format>image/svg+xml</dc:format>
        <dc:type
           rdf:resource="http://purl.org/dc/dcmitype/StillImage" />
        <dc:title></dc:title>
      </cc:Work>
    </rdf:RDF>
  </metadata>
  <g
     id="layer1"
     inkscape:label="Layer 1"
     inkscape:groupmode="layer"
     transform="translate(0,32)">
    <g
       id="g8200"
       transform="translate(35.793911,3.1806718)"
       style="fill:#ac4142;fill-opacity:1">
      <path
         style="fill:#000000;fill-opacity:1;stroke-width:2.12244153"
         d="m -4.0053358,-35.178967 a 32.000129,32.000129 0 0 0 -22.7872312,9.571715 c -0.01486,0.01677 -0.03069,0.0329 -0.04559,0.04975 -0.142819,0.16156 -0.282934,0.324918 -0.422831,0.489157 l -0.232142,0.422831 -0.120215,0.42283 -0.07047,0.373085 c -0.0014,0.08598 -0.0014,0.171048 0,0.257013 0.0028,0.164341 0.01189,0.32945 0.02488,0.493302 l 0.04561,0.377232 0.09534,0.352358 0.140952,0.232142 0.211416,0.281887 0.232142,0.236288 0.402103,0.257015 0.348214,0.161666 c 0.140103,0.04117 0.281559,0.08324 0.422829,0.120215 0.194437,0.0509 0.392299,0.09806 0.588646,0.140951 l 0.302614,0.116077 0.02487,0.02901 a 8.2450299,8.2450299 0 0 1 5.550681,4.547498 l 0.02488,-0.01244 12.166731,21.6596827 -0.016576,0.00828 a 8.2450299,8.2450299 0 0 1 1.583541,4.8376743 8.2450299,8.2450299 0 0 1 -8.245189,8.245189 8.2450299,8.2450299 0 0 1 -6.810883,-3.610638 l -0.0083,0.0042 -0.04975,-0.0912 a 8.2450299,8.2450299 0 0 1 -0.559628,-0.982459 l -9.14474,-16.1504535 -0.02488,-0.033174 -0.397958,-0.2818857 -0.306758,-0.1160764 -0.281888,-0.070465 -0.373085,-0.04975 -0.518173,0.04975 -0.443558,0.070465 -0.46843,0.1160764 -0.493302,0.1865414 -0.42283,0.2818857 -0.46843,0.3979578 -0.327486,0.3523593 -0.327484,0.51817288 -0.19068,0.44355847 -0.140952,0.67984352 -0.04561,0.63424499 V 1.5202862 c 0.01931,0.2036907 0.04283,0.4066577 0.07047,0.6093721 0.03421,0.2508578 0.07363,0.5007222 0.116076,0.7503171 a 32.000129,32.000129 0 0 0 0.0083,0.033174 A 32.000129,32.000129 0 0 0 -4.0011907,28.817623 32.000129,32.000129 0 0 0 27.997105,-3.1806716 32.000129,32.000129 0 0 0 27.798126,-6.4430957 c -0.05404,-0.2548161 -0.129533,-0.5087132 -0.273597,-0.7254442 l -0.418684,-0.5637736 -0.634245,-0.5140299 -0.750317,-0.2362872 -1.00733,-0.0208 -0.72959,0.1160764 -0.397957,0.1285138 a 8.2450299,8.2450299 0 0 1 -6.155911,2.7732671 8.2450299,8.2450299 0 0 1 -8.2451892,-8.2451867 8.2450299,8.2450299 0 0 1 5.4677752,-7.756033 v -0.0083 l 1.243619,-0.538901 0.795915,-0.518175 0.704717,-0.654903 0.42283,-0.89126 0.0912,-1.077801 -0.145088,-0.746172 -0.422831,-0.750315 c -0.184137,-0.206386 -0.368609,-0.413485 -0.559629,-0.613519 -0.259595,-0.27184 -0.52822,-0.536318 -0.80006,-0.795916 l -0.505738,-0.431121 a 32.000129,32.000129 0 0 0 -19.4833498,-6.665793 z m -0.066326,14.061176 a 8.2450299,8.2450299 0 0 1 7.4699991,4.779639 l 0.020728,-0.01244 12.1708747,21.6596829 -0.01658,0.00828 A 8.2450299,8.2450299 0 0 1 17.156904,10.1509 8.2450299,8.2450299 0 0 1 8.9117146,18.396089 8.2450299,8.2450299 0 0 1 2.1008333,14.785451 l -0.0083,0.0083 -0.049746,-0.0912 A 8.2450299,8.2450299 0 0 1 1.4831603,13.72007 L -11.14371,-8.5821497 l 0.02902,-0.012522 a 8.2450299,8.2450299 0 0 1 -1.202163,-4.2780473 8.2450299,8.2450299 0 0 1 8.2451886,-8.245189 z"
         id="path7503"
         inkscape:connector-curvature="0" />
      <g
         id="g8186"
         style="fill:#ac4142;fill-opacity:1" />
    </g>
  </g>
</svg>
